<svg width="132" height="108" viewBox="0 0 132 108" fill="none" xmlns="http://www.w3.org/2000/svg">
<path d="M60.8552 107.348H38.8699C36.6183 107.348 34.7871 105.552 34.7871 103.344C34.7871 101.135 36.6183 99.3408 38.8699 99.3408H55.7834C56.484 99.3408 57.0527 99.8972 57.0527 100.586C57.0527 101.273 56.484 101.83 55.7834 101.83H38.8699C38.0182 101.83 37.3257 102.509 37.3257 103.344C37.3257 104.179 38.0182 104.858 38.8699 104.858H60.8552C61.5562 104.858 62.1245 105.415 62.1245 106.103C62.1245 106.79 61.5562 107.348 60.8552 107.348Z" fill="#4E55FF"/>
<path d="M48.0808 101.419C47.3802 101.419 46.8115 100.862 46.8115 100.175V88.2917C46.8115 87.6046 47.3802 87.0469 48.0808 87.0469C48.7818 87.0469 49.3501 87.6046 49.3501 88.2917V100.175C49.3501 100.862 48.7818 101.419 48.0808 101.419Z" fill="#4E55FF"/>
<path d="M99.08 107.355H60.7471C57.4365 107.355 54.7432 104.714 54.7432 101.467V30.0819C54.7432 26.8347 57.4365 24.1934 60.7471 24.1934H111.884C115.195 24.1934 117.888 26.8347 117.888 30.0819V47.5817C117.888 48.2692 117.32 48.8266 116.619 48.8266C115.917 48.8266 115.35 48.2692 115.35 47.5817V30.0819C115.35 28.2067 113.795 26.683 111.884 26.683H60.7471C58.8367 26.683 57.2818 28.208 57.2818 30.0819V101.467C57.2818 103.341 58.8367 104.866 60.7471 104.866H99.08C99.782 104.866 100.349 105.422 100.349 106.111C100.349 106.798 99.781 107.355 99.08 107.355Z" fill="#4E55FF"/>
<path d="M55.7852 89.1367H8.16367C4.15234 89.1367 0.887695 85.9363 0.887695 82.0024V8.371C0.887695 4.43703 4.15234 1.23535 8.16367 1.23535H110.674C114.686 1.23535 117.95 4.43703 117.95 8.371V30.0246C117.95 30.7117 117.382 31.2694 116.681 31.2694C115.979 31.2694 115.412 30.7117 115.412 30.0246V8.371C115.412 5.80899 113.287 3.725 110.674 3.725H8.16367C5.55094 3.725 3.4263 5.80899 3.4263 8.371V82.0024C3.4263 84.5634 5.55094 86.6471 8.16367 86.6471H55.7852C56.4858 86.6471 57.0545 87.2047 57.0545 87.8919C57.0545 88.5803 56.4858 89.1367 55.7852 89.1367Z" fill="#4E55FF"/>
<path d="M124.202 107.346H99.1949C95.493 107.346 92.4795 104.391 92.4795 100.76V53.2354C92.4795 49.6048 95.493 46.6494 99.1949 46.6494H124.202C127.905 46.6494 130.917 49.6048 130.917 53.2354V100.76C130.917 104.391 127.905 107.346 124.202 107.346ZM99.1949 49.1391C96.8929 49.1391 95.0181 50.9764 95.0181 53.2354V100.76C95.0181 103.018 96.8919 104.857 99.1949 104.857H124.202C126.505 104.857 128.378 103.019 128.378 100.76V53.2354C128.378 50.9777 126.505 49.1391 124.202 49.1391H99.1949Z" fill="#4E55FF"/>
<path d="M19.4025 20.5355H16.3562C15.6556 20.5355 15.0869 19.9779 15.0869 19.2907C15.0869 18.6036 15.6556 18.0459 16.3562 18.0459H19.4025C20.1032 18.0459 20.6718 18.6036 20.6718 19.2907C20.6718 19.9779 20.1032 20.5355 19.4025 20.5355Z" fill="#4E55FF"/>
<path d="M28.3566 20.5355H25.3103C24.6097 20.5355 24.041 19.9779 24.041 19.2907C24.041 18.6036 24.6097 18.0459 25.3103 18.0459H28.3566C29.0573 18.0459 29.6259 18.6036 29.6259 19.2907C29.6259 19.9779 29.0573 20.5355 28.3566 20.5355Z" fill="#4E55FF"/>
<path d="M37.1838 20.5355H34.1375C33.4368 20.5355 32.8682 19.9779 32.8682 19.2907C32.8682 18.6036 33.4368 18.0459 34.1375 18.0459H37.1838C37.8844 18.0459 38.4531 18.6036 38.4531 19.2907C38.4531 19.9779 37.8844 20.5355 37.1838 20.5355Z" fill="#4E55FF"/>
<path d="M70.6994 37.4721H67.6531C66.9524 37.4721 66.3838 36.9144 66.3838 36.2272C66.3838 35.5401 66.9524 34.9824 67.6531 34.9824H70.6994C71.4001 34.9824 71.9687 35.5401 71.9687 36.2272C71.9687 36.9144 71.4001 37.4721 70.6994 37.4721Z" fill="#4E55FF"/>
<path d="M79.5266 37.4721H76.4802C75.7796 37.4721 75.2109 36.9144 75.2109 36.2272C75.2109 35.5401 75.7796 34.9824 76.4802 34.9824H79.5266C80.2272 34.9824 80.7959 35.5401 80.7959 36.2272C80.7959 36.9144 80.2272 37.4721 79.5266 37.4721Z" fill="#4E55FF"/>
<path d="M88.4807 37.4721H85.4343C84.7337 37.4721 84.165 36.9144 84.165 36.2272C84.165 35.5401 84.7337 34.9824 85.4343 34.9824H88.4807C89.1813 34.9824 89.75 35.5401 89.75 36.2272C89.75 36.9144 89.1813 37.4721 88.4807 37.4721Z" fill="#4E55FF"/>
<path d="M119.438 61.8109H116.391C115.691 61.8109 115.122 61.2532 115.122 60.5661C115.122 59.879 115.691 59.3213 116.391 59.3213H119.438C120.138 59.3213 120.707 59.879 120.707 60.5661C120.707 61.2532 120.138 61.8109 119.438 61.8109Z" fill="#4E55FF"/>
<path d="M123.21 102.601H100.078C98.4981 102.601 97.2129 101.34 97.2129 99.7896V54.1033C97.2129 52.5537 98.4981 51.292 100.078 51.292H105.681C106.993 51.292 108.15 52.0532 108.627 53.2333C109.123 54.4532 110.307 55.2402 111.645 55.2402C112.983 55.2402 114.167 54.4532 114.661 53.2333C115.139 52.0532 116.295 51.292 117.608 51.292H123.21C124.79 51.292 126.076 52.5524 126.076 54.1033V99.7896C126.076 101.34 124.79 102.601 123.21 102.601ZM100.078 53.7816C99.8984 53.7816 99.7515 53.9267 99.7515 54.1033V99.7896C99.7515 99.9659 99.8984 100.111 100.078 100.111H123.21C123.391 100.111 123.538 99.9672 123.538 99.7896V54.1033C123.538 53.9267 123.391 53.7816 123.21 53.7816H117.608C117.346 53.7816 117.11 53.9307 117.02 54.1538C116.14 56.327 114.029 57.7312 111.645 57.7312C109.261 57.7312 107.149 56.327 106.269 54.1524C106.179 53.9307 105.943 53.7816 105.681 53.7816H100.078Z" fill="#4E55FF"/>
<path d="M93.5287 102.237H61.7234C60.7661 102.237 59.9873 101.474 59.9873 100.535V30.9158C59.9873 29.9757 60.7661 29.2119 61.7234 29.2119H111.06C112.017 29.2119 112.796 29.9757 112.796 30.9158V47.6157C112.796 48.3032 112.228 48.8605 111.526 48.8605C110.826 48.8605 110.257 48.3032 110.257 47.6157V31.7016H62.5259V99.7478H93.5287C94.2297 99.7478 94.798 100.306 94.798 100.993C94.798 101.68 94.2297 102.237 93.5287 102.237Z" fill="#4E55FF"/>
<path d="M55.9151 73.4779H2.54079C1.84013 73.4779 1.27148 72.9216 1.27148 72.2331C1.27148 71.546 1.84013 70.9883 2.54079 70.9883H55.9151C56.6157 70.9883 57.1844 71.546 57.1844 72.2331C57.1844 72.9216 56.6157 73.4779 55.9151 73.4779Z" fill="#4E55FF"/>
<path d="M7.14625 73.1734C6.4456 73.1734 5.87695 72.6157 5.87695 71.9285V8.35434C5.87695 7.12644 6.89646 6.12793 8.1485 6.12793H110.659C111.911 6.12793 112.93 7.12644 112.93 8.35434V25.0612C112.93 25.7483 112.362 26.306 111.66 26.306C110.959 26.306 110.391 25.7483 110.391 25.0612V8.61757H8.41556V71.9285C8.41556 72.6157 7.84826 73.1734 7.14625 73.1734Z" fill="#4E55FF"/>
<path d="M111.354 14.5141H7.53004C6.82939 14.5141 6.26074 13.9564 6.26074 13.2692C6.26074 12.5821 6.82939 12.0244 7.53004 12.0244H111.354C112.054 12.0244 112.623 12.5821 112.623 13.2692C112.623 13.9564 112.054 14.5141 111.354 14.5141Z" fill="#4E55FF"/>
<path d="M15.3328 14.1436C14.6321 14.1436 14.0635 13.5859 14.0635 12.8988V7.62373C14.0635 6.93659 14.6321 6.37891 15.3328 6.37891C16.0334 6.37891 16.6021 6.93659 16.6021 7.62373V12.8988C16.6021 13.5859 16.0334 14.1436 15.3328 14.1436Z" fill="#4E55FF"/>
<path d="M31.1762 67.8961H15.1986C13.4443 67.8961 12.0176 66.4969 12.0176 64.7764V44.6246C12.0176 42.905 13.4443 41.5059 15.1986 41.5059H31.1773C32.9306 41.5059 34.3573 42.905 34.3573 44.6246V64.7764C34.3573 66.4969 32.9306 67.8961 31.1762 67.8961ZM15.1986 43.9955C14.8446 43.9955 14.5562 44.2783 14.5562 44.6255V64.7774C14.5562 65.1236 14.8446 65.4064 15.1986 65.4064H31.1773C31.5303 65.4064 31.8187 65.1249 31.8187 64.7774V44.6255C31.8187 44.2783 31.5317 43.9955 31.1773 43.9955H15.1986Z" fill="#4E55FF"/>
<path d="M55.7093 67.8961H40.6547C38.9003 67.8961 37.4736 66.4969 37.4736 64.7764V44.6246C37.4736 42.905 38.9003 41.5059 40.6547 41.5059H55.7675C56.4695 41.5059 57.0368 42.0622 57.0368 42.7507C57.0368 43.4378 56.4695 43.9955 55.7675 43.9955H40.6547C40.3006 43.9955 40.0122 44.277 40.0122 44.6246V64.7764C40.0122 65.1236 40.3006 65.4064 40.6547 65.4064H55.7093C56.4099 65.4064 56.9786 65.9641 56.9786 66.6513C56.9786 67.3384 56.4099 67.8961 55.7093 67.8961Z" fill="#4E55FF"/>
<path d="M119.002 86.3611H104.175C102.664 86.3611 101.435 85.1551 101.435 83.6729V80.0759C101.435 78.5927 102.664 77.3867 104.175 77.3867H119.002C120.514 77.3867 121.743 78.594 121.743 80.0759V83.6729C121.743 85.1551 120.514 86.3611 119.002 86.3611ZM104.175 79.8764C104.064 79.8764 103.973 79.9657 103.973 80.0759V83.6729C103.973 83.7831 104.064 83.8714 104.175 83.8714H119.002C119.113 83.8714 119.205 83.7821 119.205 83.6729V80.0759C119.205 79.9657 119.113 79.8764 119.002 79.8764H104.175Z" fill="#4E55FF"/>
<path d="M119.002 97.6521H104.175C102.664 97.6521 101.435 96.4448 101.435 94.9629V91.3659C101.435 89.8837 102.664 88.6777 104.175 88.6777H119.002C120.514 88.6777 121.743 89.8837 121.743 91.3659V94.9629C121.743 96.4448 120.514 97.6521 119.002 97.6521ZM104.175 91.1674C104.064 91.1674 103.973 91.2567 103.973 91.3659V94.9629C103.973 95.0731 104.064 95.1624 104.175 95.1624H119.002C119.113 95.1624 119.205 95.0731 119.205 94.9629V91.3659C119.205 91.2557 119.113 91.1674 119.002 91.1674H104.175Z" fill="#4E55FF"/>
<path d="M119.002 75.07H104.175C102.664 75.07 101.435 73.8641 101.435 72.3819V68.7848C101.435 67.3017 102.664 66.0957 104.175 66.0957H119.002C120.514 66.0957 121.743 67.3017 121.743 68.7848V72.3819C121.743 73.8641 120.514 75.07 119.002 75.07ZM104.175 68.5853C104.064 68.5853 103.973 68.6746 103.973 68.7835V72.3806C103.973 72.4908 104.064 72.5804 104.175 72.5804H119.002C119.113 72.5804 119.205 72.4908 119.205 72.3806V68.7835C119.205 68.6733 119.113 68.5853 119.002 68.5853H104.175Z" fill="#4E55FF"/>
<path d="M93.3936 61.964H69.0826C67.3133 61.964 65.8721 60.5519 65.8721 58.8168V51.4295C65.8721 49.6947 67.3133 48.2812 69.0826 48.2812H94.8375C95.5382 48.2812 96.1068 48.8389 96.1068 49.5261C96.1068 50.2132 95.5382 50.7709 94.8375 50.7709H69.0826C68.7123 50.7709 68.4107 51.0667 68.4107 51.4295V58.8168C68.4107 59.1799 68.7123 59.4743 69.0826 59.4743H93.3936C94.0942 59.4743 94.6629 60.0317 94.6629 60.7192C94.6629 61.4076 94.0942 61.964 93.3936 61.964Z" fill="#4E55FF"/>
<path d="M93.3936 79.1515H69.0826C67.3133 79.1515 65.8721 77.7394 65.8721 76.0043V68.617C65.8721 66.8822 67.3133 65.4688 69.0826 65.4688H93.4413C94.142 65.4688 94.7106 66.0264 94.7106 66.7136C94.7106 67.4007 94.142 67.9584 93.4413 67.9584H69.0826C68.7123 67.9584 68.4107 68.2542 68.4107 68.617V76.0043C68.4107 76.3674 68.7123 76.6619 69.0826 76.6619H93.3936C94.0942 76.6619 94.6629 77.2192 94.6629 77.9067C94.6629 78.5951 94.0942 79.1515 93.3936 79.1515Z" fill="#4E55FF"/>
<path d="M93.3144 96.339H69.0826C67.3133 96.339 65.8721 94.9269 65.8721 93.1918V85.8045C65.8721 84.0697 67.3133 82.6562 69.0826 82.6562H93.3618C94.0627 82.6562 94.6311 83.2139 94.6311 83.9011C94.6311 84.5882 94.0627 85.1459 93.3618 85.1459H69.0826C68.7123 85.1459 68.4107 85.4417 68.4107 85.8045V93.1918C68.4107 93.5549 68.7123 93.8494 69.0826 93.8494H93.3144C94.015 93.8494 94.5837 94.4067 94.5837 95.0942C94.5837 95.7826 94.015 96.339 93.3144 96.339Z" fill="#4E55FF"/>
</svg>
