<svg width="27" height="27" viewBox="0 0 27 27" fill="none" xmlns="http://www.w3.org/2000/svg">
<path d="M9.03085 21.4537C9.03085 21.5612 8.90565 21.6473 8.74778 21.6473C8.56815 21.6634 8.44294 21.5774 8.44294 21.4537C8.44294 21.3462 8.56815 21.2602 8.72601 21.2602C8.88931 21.244 9.03085 21.3301 9.03085 21.4537ZM7.3379 21.2118C7.2998 21.3193 7.40867 21.443 7.57198 21.4752C7.71351 21.529 7.87681 21.4752 7.90948 21.3677C7.94214 21.2602 7.83871 21.1365 7.6754 21.0881C7.53387 21.0505 7.37601 21.1043 7.3379 21.2118ZM9.74395 21.1204C9.58609 21.158 9.47722 21.2602 9.49355 21.3838C9.50988 21.4913 9.65141 21.5612 9.81472 21.5236C9.97258 21.486 10.0815 21.3838 10.0651 21.2763C10.0488 21.1742 9.90181 21.1043 9.74395 21.1204ZM13.3258 0.518555C5.77561 0.518555 0 6.17976 0 13.6366C0 19.5989 3.7996 24.701 9.22681 26.4966C9.92359 26.6203 10.1685 26.1956 10.1685 25.8461C10.1685 25.5128 10.1522 23.6741 10.1522 22.5451C10.1522 22.5451 6.34173 23.3515 5.54153 20.943C5.54153 20.943 4.92097 19.3785 4.02823 18.9753C4.02823 18.9753 2.78165 18.1312 4.11532 18.1473C4.11532 18.1473 5.47077 18.2548 6.21653 19.5344C7.40867 21.6096 9.40645 21.0129 10.1849 20.658C10.3101 19.7978 10.6639 19.2011 11.0558 18.8462C8.0129 18.5129 4.94274 18.0774 4.94274 12.9055C4.94274 11.427 5.35645 10.6851 6.22742 9.73884C6.08589 9.38939 5.62319 7.94855 6.36895 6.08836C7.50665 5.7389 10.125 7.53995 10.125 7.53995C11.2137 7.23888 12.3841 7.08297 13.5435 7.08297C14.703 7.08297 15.8734 7.23888 16.9621 7.53995C16.9621 7.53995 19.5804 5.73353 20.7181 6.08836C21.4639 7.95392 21.0012 9.38939 20.8597 9.73884C21.7306 10.6904 22.2641 11.4324 22.2641 12.9055C22.2641 18.0936 19.0579 18.5075 16.0149 18.8462C16.5157 19.271 16.9403 20.0774 16.9403 21.3408C16.9403 23.1526 16.924 25.3945 16.924 25.8354C16.924 26.1848 17.1744 26.6095 17.8657 26.4859C23.3093 24.701 27 19.5989 27 13.6366C27 6.17976 20.876 0.518555 13.3258 0.518555ZM5.29113 19.0613C5.22036 19.115 5.23669 19.2387 5.32923 19.3408C5.41633 19.4269 5.54153 19.4645 5.6123 19.3946C5.68306 19.3408 5.66673 19.2172 5.57419 19.115C5.4871 19.029 5.3619 18.9914 5.29113 19.0613ZM4.70323 18.6258C4.66512 18.6957 4.71956 18.7817 4.82843 18.8355C4.91552 18.8892 5.0244 18.8731 5.0625 18.7978C5.1006 18.728 5.04617 18.6419 4.9373 18.5882C4.82843 18.5559 4.74133 18.572 4.70323 18.6258ZM6.46694 20.5398C6.37984 20.6096 6.4125 20.7709 6.5377 20.8731C6.6629 20.9967 6.82077 21.0129 6.89153 20.9268C6.9623 20.857 6.92964 20.6957 6.82077 20.5935C6.70101 20.4699 6.5377 20.4537 6.46694 20.5398ZM5.84637 19.7494C5.75927 19.8032 5.75927 19.943 5.84637 20.0666C5.93347 20.1903 6.08044 20.2441 6.15121 20.1903C6.23831 20.1204 6.23831 19.9806 6.15121 19.857C6.075 19.7333 5.93347 19.6796 5.84637 19.7494Z" fill="white"/>
</svg>
