<svg width="27" height="28" viewBox="0 0 27 28" fill="none" xmlns="http://www.w3.org/2000/svg">
<path d="M22.7812 17.3936H21.0938C20.87 17.3936 20.6554 17.4824 20.4971 17.6407C20.3389 17.7989 20.25 18.0135 20.25 18.2373V24.1436H3.375V7.26855H10.9688C11.1925 7.26855 11.4071 7.17966 11.5654 7.02143C11.7236 6.86319 11.8125 6.64858 11.8125 6.4248V4.7373C11.8125 4.51353 11.7236 4.29892 11.5654 4.14068C11.4071 3.98245 11.1925 3.89355 10.9688 3.89355H2.53125C1.85992 3.89355 1.21609 4.16024 0.741386 4.63494C0.266684 5.10964 0 5.75348 0 6.4248L0 24.9873C0 25.6586 0.266684 26.3025 0.741386 26.7772C1.21609 27.2519 1.85992 27.5186 2.53125 27.5186H21.0938C21.7651 27.5186 22.4089 27.2519 22.8836 26.7772C23.3583 26.3025 23.625 25.6586 23.625 24.9873V18.2373C23.625 18.0135 23.5361 17.7989 23.3779 17.6407C23.2196 17.4824 23.005 17.3936 22.7812 17.3936ZM25.7344 0.518555H18.9844C17.8574 0.518555 17.2942 1.8849 18.0879 2.68066L19.9721 4.56486L7.11914 17.4131C7.00115 17.5306 6.90753 17.6704 6.84365 17.8242C6.77977 17.978 6.74689 18.143 6.74689 18.3096C6.74689 18.4761 6.77977 18.6411 6.84365 18.7949C6.90753 18.9487 7.00115 19.0885 7.11914 19.206L8.31463 20.3994C8.43221 20.5174 8.57193 20.611 8.72577 20.6749C8.8796 20.7388 9.04454 20.7717 9.21111 20.7717C9.37769 20.7717 9.54262 20.7388 9.69646 20.6749C9.8503 20.611 9.99002 20.5174 10.1076 20.3994L22.9542 7.5491L24.8379 9.43066C25.6289 10.2217 27 9.66797 27 8.53418V1.78418C27 1.44852 26.8667 1.1266 26.6293 0.889248C26.392 0.651897 26.07 0.518555 25.7344 0.518555Z" fill="white"/>
</svg>
