<svg width="38" height="38" viewBox="0 0 38 38" fill="none" xmlns="http://www.w3.org/2000/svg">
<path fill-rule="evenodd" clip-rule="evenodd" d="M0.575195 18.6506C0.575195 8.40519 8.88077 0.0996094 19.1262 0.0996094C29.3717 0.0996094 37.6772 8.40519 37.6772 18.6506C37.6772 28.8961 29.3717 37.2017 19.1262 37.2017C8.88077 37.2017 0.575195 28.8961 0.575195 18.6506ZM18.5706 15.1781L18.6096 15.82L17.9607 15.7414C15.5991 15.4401 13.5359 14.4183 11.7841 12.7022L10.9277 11.8507L10.7071 12.4795C10.24 13.8812 10.5384 15.3615 11.5116 16.3571C12.0307 16.9073 11.9139 16.9859 11.0186 16.6584C10.7071 16.5536 10.4346 16.475 10.4087 16.5143C10.3178 16.606 10.6293 17.7981 10.8758 18.2698C11.2132 18.9248 11.9009 19.5667 12.6535 19.9466L13.2894 20.2479L12.5368 20.261C11.8101 20.261 11.7841 20.2741 11.862 20.5492C12.1215 21.4007 13.1466 22.3046 14.2885 22.6976L15.093 22.9727L14.3923 23.3919C13.3542 23.9945 12.1345 24.3351 10.9147 24.3613C10.3308 24.3744 9.85071 24.4268 9.85071 24.4661C9.85071 24.5971 11.4338 25.3307 12.3551 25.6189C15.119 26.4704 18.4019 26.1036 20.8674 24.6495C22.6192 23.6146 24.3709 21.5579 25.1884 19.5667C25.6296 18.5056 26.0708 16.5667 26.0708 15.6366C26.0708 15.034 26.1097 14.9554 26.8364 14.2349C27.2646 13.8157 27.6668 13.3572 27.7447 13.2262C27.8745 12.9773 27.8615 12.9773 27.1997 13.2C26.0967 13.593 25.941 13.5406 26.486 12.9511C26.8883 12.5319 27.3684 11.7721 27.3684 11.5494C27.3684 11.5101 27.1737 11.5756 26.9532 11.6935C26.7196 11.8245 26.2005 12.021 25.8113 12.1389L25.1106 12.3616L24.4747 11.9293C24.1244 11.6935 23.6313 11.4315 23.3718 11.3529C22.71 11.1695 21.6979 11.1957 21.101 11.4053C19.4789 11.9948 18.4538 13.5144 18.5706 15.1781Z" fill="#4E55FF"/>
</svg>
