<svg width="27" height="28" viewBox="0 0 27 28" fill="none" xmlns="http://www.w3.org/2000/svg">
<path fill-rule="evenodd" clip-rule="evenodd" d="M0.0478516 0.492188V27.2646H26.8203V0.492188H0.0478516ZM5.91769 15.0162V13.9253L5.93777 13.932V12.8343L10.623 12.8142C13.1998 12.8142 15.3215 12.8209 15.3215 12.841C15.3483 12.8544 15.3483 13.343 15.3483 13.9453V15.0162H11.8679V24.9221H9.39811V15.0162H5.91769ZM23.2328 13.7646C22.7643 13.276 22.2422 12.9681 21.5595 12.8075L21.5729 12.7941C21.1111 12.6736 20.0067 12.6335 19.5382 12.7272C18.0925 12.9949 17.0818 13.932 16.794 15.2706C16.7003 15.6521 16.7338 16.6025 16.8342 16.9907C16.968 17.4392 17.2558 17.9813 17.5704 18.3293C18.1192 18.9049 18.7082 19.2798 20.0937 19.8688C21.2985 20.4042 21.7268 20.6452 21.941 20.9397C22.095 21.1739 22.1418 21.3145 22.1418 21.6224C22.1418 21.957 22.0347 22.198 21.7871 22.4255C21.2115 22.9476 20.0469 23.0078 19.1768 22.5594C18.8889 22.3988 18.3937 21.9302 18.1728 21.5822L17.9988 21.3479L17.2424 21.7897L16.2385 22.372L15.9841 22.5326C15.9574 22.5795 16.4326 23.2956 16.6802 23.5634C17.3094 24.2528 18.3334 24.7882 19.4043 24.989C19.9063 25.076 20.9772 25.0894 21.4457 25.0091C22.9383 24.7614 23.9824 24.0051 24.4108 22.8874C24.7923 21.8633 24.6651 20.4979 24.0962 19.6278C23.5942 18.8514 22.7643 18.3093 20.85 17.486C19.8126 17.0309 19.4779 16.81 19.2972 16.4419C19.2169 16.2679 19.1768 16.1474 19.1768 15.9332C19.1768 15.2304 19.7122 14.8088 20.5154 14.8623C21.0709 14.9025 21.4256 15.1166 21.7737 15.6119C21.8808 15.7859 21.9879 15.8997 22.0146 15.8797C22.7174 15.4446 23.8753 14.6615 23.8753 14.6213C23.8485 14.5009 23.4804 14.0324 23.2328 13.7646Z" class="icon-primary-color"/>
</svg>
