<svg width="31" height="31" viewBox="0 0 31 31" fill="none" xmlns="http://www.w3.org/2000/svg">
<path fill-rule="evenodd" clip-rule="evenodd" d="M24.8652 0.367188H5.3883C2.43535 0.367188 0.0478516 2.8159 0.0478516 5.84457V25.0476C0.0478516 28.0763 2.43535 30.525 5.3883 30.525H24.8652C27.8182 30.525 30.2057 28.0763 30.2057 25.0476V5.84457C30.2057 2.8159 27.8182 0.367188 24.8652 0.367188ZM22.2525 11.6598C21.8347 11.6718 21.4296 11.5156 21.1258 11.2391C20.8346 10.9386 20.6827 10.542 20.6953 10.1333C20.6827 9.72468 20.8472 9.34006 21.1511 9.06361C21.4549 8.78717 21.86 8.64293 22.2778 8.64293C22.7715 8.64293 23.1513 8.78717 23.4298 9.06361C23.7083 9.35208 23.8602 9.7367 23.8476 10.1333C23.8602 10.542 23.7083 10.9386 23.4045 11.2391C23.1133 11.5276 22.6829 11.6839 22.2525 11.6598ZM20.8346 22.0927V12.8377C20.8346 12.7175 20.8852 12.6694 20.9992 12.6694H23.5058C23.6197 12.6694 23.6703 12.7295 23.6703 12.8377V22.0927C23.6703 22.2249 23.6197 22.285 23.5058 22.285H21.0245C20.8979 22.285 20.8346 22.2129 20.8346 22.0927ZM15.4796 19.2801H10.7703L9.80813 22.1047C9.78281 22.2129 9.68153 22.285 9.56759 22.273H7.1876C7.04835 22.273 7.01037 22.2009 7.04835 22.0566L11.1247 10.9146C11.1358 10.8796 11.1469 10.8435 11.1582 10.8064C11.1859 10.7163 11.2154 10.6202 11.2513 10.518C11.302 10.2656 11.3273 10.0011 11.3273 9.7367C11.3146 9.67661 11.3653 9.61651 11.4285 9.60449H14.7074C14.8086 9.60449 14.8593 9.64055 14.8719 9.70064L19.4927 22.0807C19.5307 22.2129 19.4927 22.273 19.3661 22.273H16.7202C16.6316 22.285 16.543 22.2249 16.5177 22.1408L15.4796 19.2801ZM11.5045 16.8402H14.72C14.6441 16.5878 14.5428 16.2873 14.4289 15.9748C14.3149 15.6503 14.201 15.3017 14.0871 14.9411C14.0238 14.7549 13.9637 14.5716 13.9035 14.3884L13.9035 14.3882C13.8434 14.2049 13.7832 14.0216 13.7199 13.8353C13.5933 13.4627 13.4794 13.1142 13.3781 12.7656C13.3333 12.6167 13.291 12.4725 13.25 12.3329L13.25 12.3329L13.25 12.3329C13.1984 12.1572 13.149 11.9889 13.0996 11.8281H13.0743C12.9604 12.3449 12.8211 12.8618 12.6439 13.3786C12.5716 13.5983 12.4993 13.8214 12.4263 14.0467L12.4262 14.047L12.4261 14.0472C12.3074 14.4135 12.1869 14.7855 12.0615 15.1575C11.8843 15.7705 11.6944 16.3354 11.5045 16.8402Z" class="icon-primary-color"/>
</svg>
