<svg width="27" height="31" viewBox="0 0 27 31" fill="none" xmlns="http://www.w3.org/2000/svg">
<path d="M14.641 0.356023C13.9101 -0.0714577 12.9573 -0.0695355 12.2258 0.356023C11.3242 0.873497 10.4225 1.39101 9.5209 1.90853C6.75885 3.49389 3.9967 5.07929 1.2342 6.66379C0.521186 7.05389 0.0402717 7.85023 0.047942 8.67678V21.3815C0.0427935 22.2242 0.548505 23.0282 1.27991 23.413C1.67699 23.6326 2.0698 23.8608 2.46259 24.0889C3.11095 24.4654 3.75923 24.8418 4.4265 25.1803C5.66425 25.8128 7.2128 25.9527 8.46568 25.2931C9.48267 24.7463 9.93438 23.5304 9.93311 22.413C9.93829 19.7648 9.93743 17.1165 9.93657 14.4683C9.93607 12.9236 9.93557 11.3789 9.93627 9.83417C9.96043 9.64783 9.82594 9.44866 9.63051 9.45315C9.16231 9.44546 8.69348 9.44866 8.22528 9.45186C8.04833 9.43446 7.8757 9.58727 7.88904 9.77223C7.88574 11.9543 7.88625 14.1367 7.88675 16.3192C7.88721 18.3034 7.88766 20.2877 7.88526 22.2718C7.89545 22.8481 7.52108 23.4021 6.987 23.5967C6.38179 23.827 5.70733 23.6484 5.15801 23.3479C4.82802 23.1585 4.49795 22.9693 4.16789 22.7801C3.52268 22.4103 2.87747 22.0405 2.23281 21.669C2.16821 21.6378 2.11454 21.5874 2.07904 21.5243C2.04353 21.4612 2.02789 21.3886 2.03422 21.3162C2.03422 19.919 2.03429 18.5218 2.03436 17.1246C2.0345 14.3302 2.03464 11.5359 2.03422 8.74192C2.01647 8.57298 2.1166 8.42081 2.2658 8.35182C4.29761 7.18873 6.32884 6.02401 8.36013 4.85926C9.97947 3.93073 11.5989 3.00216 13.2186 2.07438C13.282 2.03036 13.357 2.00687 13.4338 2.00698C13.5106 2.0071 13.5855 2.03082 13.6488 2.07502C15.2615 2.99847 16.8739 3.92244 18.4864 4.84643C20.525 6.0146 22.5636 7.1828 24.6028 8.35001C24.7526 8.41888 24.8484 8.57362 24.8332 8.74192C24.8329 10.2665 24.833 11.7911 24.8331 13.3158C24.8333 15.9825 24.8335 18.6492 24.8319 21.3156C24.8427 21.4639 24.7691 21.6077 24.6358 21.6728C22.7548 22.7539 20.8724 23.8326 18.9899 24.9113C17.2739 25.8947 15.5579 26.8781 13.8428 27.8632C13.8207 27.8757 13.7981 27.8893 13.775 27.903C13.6186 27.9964 13.4414 28.1021 13.2662 27.9993C12.7262 27.6887 12.19 27.3711 11.6538 27.0536C11.2539 26.8168 10.8541 26.58 10.4527 26.3461C10.3506 26.2797 10.2205 26.2513 10.1139 26.3254C10.0884 26.3394 10.0629 26.3534 10.0374 26.3674C9.64144 26.5848 9.24359 26.8032 8.81273 26.9425C8.75794 26.965 8.69974 26.9832 8.64121 27.0016C8.48223 27.0513 8.32079 27.1019 8.21834 27.2422C8.34379 27.4173 8.52844 27.5216 8.71129 27.625C8.75955 27.6522 8.80767 27.6794 8.85455 27.7078C9.35539 28.0026 9.8566 28.2968 10.3578 28.5911C10.9563 28.9424 11.5548 29.2938 12.1528 29.6461C12.8761 30.1155 13.848 30.1489 14.5946 29.7151C16.3313 28.7198 18.0676 27.7239 19.804 26.7281C21.7314 25.6226 23.6589 24.5172 25.5868 23.4124C26.3164 23.0255 26.8246 22.2247 26.8194 21.3814V8.67678C26.8265 7.86699 26.364 7.08486 25.6725 6.68899C23.5194 5.45152 21.3657 4.21563 19.2119 2.97972C17.6882 2.10535 16.1645 1.23097 14.641 0.356023Z" fill="#4E55FF"/>
<path d="M20.1696 9.89479C18.7315 9.09461 17.0206 9.052 15.4225 9.15655C14.2679 9.27519 13.0536 9.60656 12.2124 10.4673C11.3497 11.3326 11.1619 12.7298 11.5717 13.8595C11.8654 14.6576 12.6045 15.1767 13.3689 15.4513C14.3537 15.8128 15.3878 15.9246 16.4224 16.0364C17.366 16.1384 18.3099 16.2404 19.2168 16.532C19.5873 16.6597 20.0187 16.855 20.1322 17.2742C20.237 17.7706 20.1221 18.3477 19.7345 18.6927C19.038 19.2661 18.0934 19.3068 17.2299 19.3441C17.1827 19.3462 17.1357 19.3482 17.089 19.3503C16.9978 19.3488 16.9058 19.3478 16.8133 19.3467C15.8041 19.3353 14.7319 19.3232 13.8626 18.7532C13.3708 18.4134 13.1589 17.8119 13.0727 17.2387C13.0632 17.0601 12.9249 16.8963 12.7384 16.9098C12.2715 16.904 11.8045 16.9053 11.3376 16.9092C11.1746 16.895 11.0052 17.0155 10.9963 17.1884C10.9589 18.2122 11.3357 19.273 12.1071 19.9538C13.0093 20.763 14.2254 21.075 15.394 21.2105C16.6368 21.3336 17.9068 21.3265 19.1306 21.0492C20.0505 20.8314 20.9728 20.4303 21.6061 19.6933C22.387 18.7978 22.5405 17.4644 22.1903 16.3488C21.9225 15.5165 21.1574 14.9826 20.3753 14.7079C19.3116 14.3286 18.2 14.179 17.0878 14.0293C16.2244 13.9131 15.3608 13.7969 14.5192 13.5732C14.5049 13.5686 14.4905 13.564 14.4759 13.5594C14.1504 13.4558 13.7698 13.3347 13.6272 12.9903C13.4692 12.4892 13.6037 11.8671 14.0464 11.5589C14.6232 11.152 15.3552 11.0921 16.036 11.0554C16.0603 11.0551 16.0847 11.0549 16.1092 11.0547C17.0202 11.0455 17.9824 11.0358 18.8152 11.4596C19.3723 11.7497 19.6951 12.3455 19.8284 12.9471C19.853 13.1238 19.9674 13.3081 20.1641 13.3004C20.4813 13.307 20.7986 13.3058 21.1159 13.3046C21.2624 13.304 21.4088 13.3034 21.5552 13.3036C21.7145 13.3153 21.8889 13.2217 21.92 13.0521C21.9004 11.7949 21.2831 10.508 20.1696 9.89479Z" fill="#4E55FF"/>
</svg>
