<svg width="31" height="28" viewBox="0 0 31 28" fill="none" xmlns="http://www.w3.org/2000/svg">
<path d="M23.5729 17.0965C23.4237 17.1455 23.2704 17.193 23.1143 17.2389C22.7686 16.1524 22.3021 14.9969 21.7314 13.8033C22.2761 12.6379 22.7245 11.4974 23.0605 10.4178C23.3398 10.4982 23.611 10.5828 23.8723 10.6723C26.3994 11.536 27.9408 12.8134 27.9408 13.7976C27.9408 14.846 26.2759 16.207 23.5729 17.0965Z" class="icon-primary-color"/>
<path d="M22.4514 19.3035C22.7246 20.6744 22.7637 21.9138 22.5826 22.8828C22.42 23.7534 22.0929 24.3338 21.6885 24.5663C20.8279 25.061 18.9874 24.4179 17.0027 22.7218C16.7751 22.5274 16.5458 22.3197 16.316 22.1001C17.0854 21.2643 17.8545 20.2926 18.605 19.2136C19.9252 19.0973 21.1725 18.9071 22.3036 18.6475C22.3592 18.8707 22.4087 19.0895 22.4514 19.3035Z" class="icon-primary-color"/>
<path d="M11.1089 24.4808C10.2681 24.7757 9.59848 24.7841 9.19373 24.5524C8.33226 24.0591 7.97428 22.1544 8.46266 19.5997C8.52074 19.2978 8.58724 18.9976 8.66208 18.6993C9.78061 18.945 11.0188 19.1218 12.3422 19.2284C13.0977 20.2842 13.8889 21.2547 14.6863 22.1045C14.5168 22.2673 14.3434 22.426 14.166 22.5803C13.1065 23.5001 12.0446 24.1526 11.1089 24.4808Z" class="icon-primary-color"/>
<path d="M7.16985 17.09C5.83825 16.638 4.73857 16.0506 3.98479 15.4097C3.30751 14.8336 2.96548 14.2617 2.96548 13.7976C2.96548 12.8102 4.44803 11.5506 6.92065 10.6945C7.231 10.5875 7.54443 10.4895 7.86055 10.4008C8.20234 11.5046 8.6506 12.6587 9.19155 13.8258C8.64359 15.0103 8.18892 16.1827 7.844 17.2995C7.61759 17.2352 7.39281 17.1653 7.16985 17.09Z" class="icon-primary-color"/>
<path d="M8.49034 8.16407C7.97706 5.55927 8.31788 3.59442 9.1756 3.10137C10.0893 2.57616 12.1094 3.32509 14.2387 5.20257C14.3747 5.32259 14.5114 5.44825 14.6484 5.57823C13.8551 6.42425 13.0711 7.38742 12.3221 8.43711C11.0378 8.55533 9.80829 8.74521 8.67803 8.99953C8.60841 8.72261 8.54582 8.44412 8.49034 8.16407Z" class="icon-primary-color"/>
<path d="M20.2699 11.0526C20.0029 10.5947 19.7261 10.1425 19.4395 9.69637C20.3109 9.80559 21.1456 9.95081 21.9295 10.1286C21.6942 10.8776 21.4009 11.6609 21.0555 12.4638C20.8031 11.9882 20.5412 11.5178 20.2699 11.0526Z" class="icon-primary-color"/>
<path d="M15.4662 6.40613C16.0043 6.98499 16.5432 7.63142 17.0732 8.3327C15.998 8.28224 14.9209 8.282 13.8456 8.33198C14.3762 7.63718 14.9197 6.99171 15.4662 6.40613Z" class="icon-primary-color"/>
<path d="M10.6317 11.0605C10.3638 11.522 10.1068 11.9896 9.86086 12.463C9.52113 11.6628 9.23047 10.876 8.9931 10.1163C9.77227 9.94313 10.6032 9.80163 11.4689 9.69421C11.1791 10.1431 10.8999 10.5986 10.6317 11.0605Z" class="icon-primary-color"/>
<path d="M11.4938 17.9836C10.5994 17.8845 9.75595 17.7502 8.97703 17.5818C9.21814 16.8086 9.51521 16.005 9.86219 15.1877C10.1091 15.6614 10.3673 16.1293 10.6364 16.5909C10.911 17.0619 11.1969 17.5262 11.4938 17.9836Z" class="icon-primary-color"/>
<path d="M15.4985 21.2709C14.9456 20.6783 14.3941 20.023 13.8554 19.3182C14.3783 19.3386 14.9113 19.3489 15.4532 19.3489C16.0098 19.3489 16.5601 19.3365 17.1016 19.3125C16.5699 20.0302 16.0329 20.6865 15.4985 21.2709Z" class="icon-primary-color"/>
<path d="M21.0666 15.146C21.4316 15.9722 21.7393 16.7716 21.9837 17.5317C21.1918 17.7111 20.337 17.8556 19.4362 17.9629C19.7249 17.5085 20.0044 17.0484 20.2746 16.5829C20.5493 16.1098 20.8134 15.6307 21.0666 15.146Z" class="icon-primary-color"/>
<path fill-rule="evenodd" clip-rule="evenodd" d="M19.264 16.0042C18.8503 16.7178 18.4134 17.4179 17.9539 18.1033C17.1437 18.1608 16.3064 18.1904 15.4532 18.1904C14.6034 18.1904 13.7767 18.1642 12.9807 18.1129C12.5093 17.4291 12.0641 16.7278 11.646 16.0105C11.23 15.2971 10.8413 14.5682 10.481 13.8254C10.8404 13.0825 11.2279 12.3532 11.6425 11.6391C12.0571 10.9249 12.4987 10.2269 12.9666 9.54598C13.7788 9.48501 14.6115 9.45309 15.4533 9.45309C16.2988 9.45309 17.1326 9.48525 17.9445 9.5467C18.4077 10.2266 18.8465 10.9224 19.2603 11.633C19.6763 12.3455 20.069 13.0712 20.4375 13.809C20.0728 14.5543 19.6813 15.2865 19.264 16.0042ZM17.8917 13.7976C17.8917 12.4602 16.8 11.376 15.4532 11.376C14.1065 11.376 13.0147 12.4602 13.0147 13.7976C13.0147 15.1351 14.1065 16.2194 15.4532 16.2194C16.8 16.2194 17.8917 15.1351 17.8917 13.7976Z" class="icon-primary-color"/>
<path d="M21.6706 3.06693C22.585 3.5907 22.9407 5.70269 22.3662 8.4724C22.3285 8.65283 22.2876 8.83257 22.2434 9.01153C21.1105 8.75193 19.8801 8.5587 18.5921 8.43868C17.8417 7.37758 17.0642 6.41273 16.2837 5.57763C16.4882 5.38182 16.6976 5.19109 16.9117 5.00561C18.9278 3.26316 20.8121 2.5752 21.6706 3.06693Z" class="icon-primary-color"/>
<path fill-rule="evenodd" clip-rule="evenodd" d="M5.89045 19.4591C2.31549 18.2456 0.0478516 16.0928 0.0478516 13.7866C0.0478516 11.543 2.43611 9.5501 5.89045 8.3541C5.17425 4.71904 5.73442 1.78994 7.69763 0.661385C9.73371 -0.509055 12.5406 0.27888 15.4678 2.8598C18.2813 0.428185 21.1163 -0.552623 23.0813 0.57269C25.1195 1.73989 25.7887 4.54681 24.9989 8.37942C28.5258 9.58515 30.7975 11.5339 30.7975 13.7866C30.7975 16.1231 28.7147 17.9589 24.9911 19.1814C25.7247 22.8619 25.1135 25.9337 23.1036 27.0892C21.1482 28.2133 18.3459 27.2807 15.573 24.911C12.7284 27.3805 9.73141 28.178 7.71974 27.0258C5.76258 25.9049 5.17655 23.0282 5.89045 19.4591ZM23.373 9.30162C23.6683 9.38597 23.9614 9.47769 24.2521 9.5767C27.2015 10.585 29.1074 12.1645 29.1074 13.7976C29.1074 15.5008 27.0706 17.1661 23.9399 18.1961C23.7745 18.2506 23.6049 18.3029 23.4321 18.3535C23.4937 18.5998 23.5487 18.8417 23.5959 19.0785C24.2139 22.1787 23.738 24.7269 22.2732 25.5689C20.8549 26.3842 18.5628 25.5833 16.2418 23.6C15.9895 23.3839 15.7434 23.1608 15.5036 22.9311C15.3133 23.1139 15.1231 23.2883 14.9338 23.4527C12.5376 25.5327 10.077 26.3956 8.61087 25.5561C7.1914 24.7429 6.74531 22.371 7.31648 19.3837C7.3789 19.059 7.45043 18.7362 7.53101 18.4155C7.28298 18.3452 7.03676 18.2687 6.79257 18.1862C3.78104 17.1641 1.79898 15.4783 1.79898 13.7976C1.79898 12.1703 3.64544 10.6014 6.53659 9.60047C6.85976 9.48861 7.19756 9.38347 7.54732 9.28481C7.47239 8.98715 7.4051 8.68764 7.34549 8.38658C6.7464 5.34647 7.16795 2.9169 8.59117 2.09872C10.0754 1.2455 12.5473 2.16173 15.0134 4.33626C15.1668 4.47182 15.3177 4.61018 15.4659 4.75129C15.6873 4.53908 15.914 4.33246 16.1458 4.13162C18.4989 2.09812 20.8288 1.24742 22.2534 2.06332C23.7392 2.91402 24.1743 5.4983 23.5088 8.7062C23.4673 8.90549 23.422 9.10399 23.373 9.30162Z" class="icon-primary-color"/>
</svg>
