<svg width="38" height="38" viewBox="0 0 38 38" fill="none" xmlns="http://www.w3.org/2000/svg">
<path fill-rule="evenodd" clip-rule="evenodd" d="M0.25293 18.6506C0.25293 8.40519 8.55851 0.0996094 18.804 0.0996094C29.0494 0.0996094 37.355 8.40519 37.355 18.6506C37.355 28.8961 29.0494 37.2017 18.804 37.2017C8.55851 37.2017 0.25293 28.8961 0.25293 18.6506ZM28.6697 15.8274C28.6499 15.7669 28.6433 15.7471 28.6355 15.7274C28.6086 15.6681 28.5996 15.6501 28.5888 15.6327C28.5547 15.577 28.5433 15.5602 28.5307 15.5441C28.4894 15.4932 28.4756 15.4782 28.4612 15.4638C28.4133 15.4183 28.3977 15.4051 28.3821 15.3925C28.3402 15.3614 28.336 15.3572 28.3312 15.3542L19.5702 9.5135C19.2935 9.329 18.9334 9.329 18.6561 9.5135L9.89566 15.3542C9.8687 15.3733 9.85672 15.3829 9.84474 15.3925C9.82856 15.4051 9.81299 15.4183 9.79801 15.4321C9.75069 15.4782 9.73691 15.4932 9.72433 15.5087C9.6836 15.5602 9.67221 15.577 9.66143 15.5944C9.62729 15.6501 9.6183 15.6681 9.60931 15.6872C9.58296 15.7472 9.57637 15.7669 9.56978 15.7873C9.55121 15.8496 9.54701 15.8729 9.54282 15.8963C9.53144 15.967 9.52844 16.0029 9.52844 16.0395V21.8802C9.52844 21.9161 9.53144 21.952 9.53623 21.988C9.54701 22.0467 9.55121 22.0695 9.5572 22.0922C9.57637 22.1521 9.58296 22.1725 9.59134 22.1929C9.6183 22.251 9.62729 22.2689 9.63747 22.2875C9.67221 22.3426 9.6836 22.3588 9.69558 22.375C9.73691 22.4259 9.75069 22.4415 9.76507 22.4552C9.81299 22.5014 9.82856 22.5145 9.84474 22.5271C9.88667 22.5583 9.89086 22.5625 9.89566 22.5655L18.6561 28.4061C18.7944 28.4984 18.9538 28.5445 19.1131 28.5445C19.2725 28.5445 19.4318 28.4984 19.5702 28.4061L28.3312 22.5655C28.3576 22.5463 28.3696 22.5367 28.3821 22.5271C28.3977 22.5145 28.4133 22.5014 28.4289 22.4876C28.4756 22.4415 28.4894 22.4259 28.5025 22.4109C28.5433 22.3588 28.5547 22.3426 28.5654 22.3252C28.5996 22.2689 28.6086 22.251 28.617 22.2324C28.6433 22.1725 28.6499 22.1521 28.6565 22.1324C28.6757 22.0695 28.6799 22.0467 28.6841 22.0233C28.6954 21.952 28.6978 21.9161 28.6978 21.8802V16.0395C28.6978 16.0029 28.6954 15.967 28.6907 15.9323C28.6799 15.8729 28.6757 15.8496 28.6697 15.8274Z" class="icon-primary-color"/>
<path fill-rule="evenodd" clip-rule="evenodd" d="M19.1131 20.9085L16.2 18.9598L19.1131 17.0111L22.0269 18.9598L19.1131 20.9085ZM19.9368 11.7383L26.3909 16.0407L23.5083 17.969L19.9368 15.58V11.7383ZM19.9368 26.1813V22.3396L23.5083 19.9512L26.3909 21.879L19.9368 26.1813ZM27.0505 20.3382L24.9898 18.9598L27.0505 17.5814V20.3382ZM18.2895 26.1813L11.8354 21.879L14.7186 19.9512L18.2895 22.3396V26.1813ZM11.1758 17.5814L13.2371 18.9598L11.1758 20.3382V17.5814ZM18.2895 11.7383V15.58L14.7186 17.969L11.8354 16.0407L18.2895 11.7383Z" class="icon-primary-color"/>
</svg>
