<svg width="38" height="38" viewBox="0 0 38 38" fill="none" xmlns="http://www.w3.org/2000/svg">
<path fill-rule="evenodd" clip-rule="evenodd" d="M18.5167 0.283203C8.29154 0.283203 0 8.71457 0 19.116C0 27.437 5.30559 34.4964 12.6628 36.9867C13.5882 37.161 13.928 36.5782 13.928 36.0807C13.928 35.6316 13.9108 34.1481 13.9028 32.5744C8.75149 33.7136 7.66449 30.3523 7.66449 30.3523C6.82218 28.1755 5.60854 27.5967 5.60854 27.5967C3.92853 26.4278 5.73518 26.4518 5.73518 26.4518C7.59458 26.5843 8.57364 28.3925 8.57364 28.3925C10.2251 31.2717 12.9054 30.4393 13.962 29.9581C14.1282 28.7412 14.6081 27.9098 15.1376 27.4398C11.0248 26.9636 6.70137 25.3487 6.70137 18.1324C6.70137 16.0762 7.4247 14.3962 8.60921 13.0773C8.41695 12.6026 7.78315 10.6875 8.78859 8.09333C8.78859 8.09333 10.3435 7.58717 13.882 10.0238C15.359 9.60652 16.9431 9.39725 18.5167 9.39008C20.0903 9.39725 21.6756 9.60652 23.1554 10.0238C26.6896 7.58717 28.2423 8.09333 28.2423 8.09333C29.2502 10.6875 28.6161 12.6026 28.4239 13.0773C29.6111 14.3962 30.3296 16.0762 30.3296 18.1324C30.3296 25.3659 25.9978 26.9586 21.8746 27.4248C22.5387 28.0093 23.1305 29.1554 23.1305 30.9124C23.1305 33.432 23.1091 35.4601 23.1091 36.0807C23.1091 36.5819 23.4424 37.1691 24.381 36.9842C31.7342 34.4911 37.0331 27.4342 37.0331 19.116C37.0331 8.71457 28.7427 0.283203 18.5167 0.283203Z" class="icon-primary-color"/>
<path fill-rule="evenodd" clip-rule="evenodd" d="M7.01321 27.3231C6.97243 27.417 6.8277 27.4448 6.69585 27.3805C6.56154 27.3191 6.48611 27.1915 6.52966 27.0977C6.56952 27.0013 6.71455 26.9748 6.84855 27.0387C6.98316 27.1005 7.05982 27.2293 7.01321 27.3231Z" class="icon-primary-color"/>
<path fill-rule="evenodd" clip-rule="evenodd" d="M7.76322 28.1739C7.67491 28.2572 7.50228 28.2185 7.38515 28.0869C7.26403 27.9556 7.24134 27.78 7.33088 27.6955C7.42194 27.6122 7.58936 27.6512 7.71079 27.7825C7.83191 27.9154 7.85552 28.0897 7.76322 28.1739Z" class="icon-primary-color"/>
<path fill-rule="evenodd" clip-rule="evenodd" d="M8.49331 29.2586C8.37985 29.3388 8.19434 29.2636 8.07966 29.0961C7.96621 28.9286 7.96621 28.7278 8.08212 28.6473C8.1971 28.5669 8.37985 28.6392 8.49606 28.8055C8.60921 28.9754 8.60921 29.1766 8.49331 29.2586Z" class="icon-primary-color"/>
<path fill-rule="evenodd" clip-rule="evenodd" d="M9.49353 30.3065C9.39203 30.4203 9.17586 30.3897 9.01764 30.2344C8.85574 30.0826 8.81067 29.8671 8.91247 29.7532C9.01519 29.6391 9.23259 29.6712 9.39203 29.8253C9.55271 29.9768 9.60177 30.1939 9.49353 30.3065Z" class="icon-primary-color"/>
<path fill-rule="evenodd" clip-rule="evenodd" d="M10.8734 30.9149C10.8286 31.0625 10.6204 31.1295 10.4107 31.0668C10.2012 31.0023 10.0642 30.8295 10.1065 30.6804C10.15 30.532 10.3591 30.4621 10.5704 30.5292C10.7795 30.5934 10.9169 30.7649 10.8734 30.9149Z" class="icon-primary-color"/>
<path fill-rule="evenodd" clip-rule="evenodd" d="M12.3887 31.0278C12.3939 31.1831 12.2161 31.3119 11.9959 31.3144C11.7745 31.3197 11.5955 31.1941 11.593 31.0412C11.593 30.8844 11.7669 30.7568 11.9883 30.7531C12.2084 30.7487 12.3887 30.8735 12.3887 31.0278Z" class="icon-primary-color"/>
<path fill-rule="evenodd" clip-rule="evenodd" d="M13.7989 30.7836C13.8253 30.9352 13.6723 31.0908 13.4536 31.132C13.2387 31.1722 13.0397 31.0787 13.0124 30.9283C12.9857 30.773 13.1415 30.6174 13.3561 30.5772C13.5751 30.5385 13.771 30.6296 13.7989 30.7836Z" class="icon-primary-color"/>
</svg>
