<svg width="31" height="32" viewBox="0 0 31 32" fill="none" xmlns="http://www.w3.org/2000/svg">
<path fill-rule="evenodd" clip-rule="evenodd" d="M24.8652 0.99707H5.3883C2.43535 0.99707 0.0478516 3.44578 0.0478516 6.47446V25.6775C0.0478516 28.7062 2.43535 31.1549 5.3883 31.1549H24.8652C27.8182 31.1549 30.2057 28.7062 30.2057 25.6775V6.47446C30.2057 3.44578 27.8182 0.99707 24.8652 0.99707ZM6.33044 22.4923V9.44354C6.33044 9.35477 6.36813 9.30405 6.45609 9.30405C6.66971 9.30405 6.87077 9.30405 7.15978 9.29136C7.31507 9.28483 7.4737 9.28167 7.63738 9.2784H7.63742C7.79158 9.27532 7.95022 9.27215 8.11478 9.266C8.29026 9.25944 8.47246 9.25628 8.66139 9.25299C8.83773 9.24993 9.01994 9.24676 9.208 9.24064C9.59754 9.22796 9.97451 9.22796 10.3515 9.22796C11.3819 9.22796 12.2364 9.35477 12.94 9.62107C13.5683 9.83665 14.1463 10.1917 14.6238 10.6609C15.026 11.0667 15.3401 11.5613 15.5411 12.1066C15.7296 12.6392 15.8302 13.1844 15.8302 13.7551C15.8302 14.8457 15.5788 15.746 15.0762 16.4562C14.5736 17.1663 13.8699 17.6989 13.0531 18.0032C12.1987 18.3203 11.2562 18.4344 10.2258 18.4344C9.92425 18.4344 9.7232 18.4344 9.59754 18.4217C9.47189 18.409 9.29594 18.409 9.05721 18.409V22.4797C9.06978 22.5684 9.00695 22.6445 8.91899 22.6572H6.48123C6.3807 22.6572 6.33044 22.6065 6.33044 22.4923ZM9.06978 11.7515V16.0123L9.10747 16.015L9.10754 16.0151C9.26913 16.0268 9.4199 16.0377 9.55984 16.0377H10.2258C10.7159 16.0377 11.206 15.9616 11.6709 15.8094C12.073 15.6953 12.4248 15.4544 12.7013 15.1373C12.9652 14.8203 13.0908 14.3891 13.0908 13.8312C13.1034 13.4381 13.0029 13.045 12.8018 12.7026C12.5882 12.3729 12.2866 12.1192 11.9222 11.9797C11.4573 11.7895 10.9546 11.7134 10.4394 11.7261C10.1127 11.7261 9.82372 11.7261 9.58497 11.7388C9.33366 11.7261 9.15774 11.7388 9.06978 11.7515ZM22.4649 14.8076C22.8921 14.8964 23.2942 15.0359 23.6712 15.2388C23.7215 15.2641 23.7843 15.2641 23.8974 15.2388C23.9351 15.2134 23.9602 15.1627 23.9602 15.112V13.045C23.9602 12.9942 23.9476 12.9435 23.9351 12.8928C23.91 12.8421 23.8597 12.7913 23.8094 12.7787C23.4701 12.6392 23.1057 12.5377 22.7288 12.487C22.2136 12.4109 21.6858 12.3729 21.1706 12.3729C20.2784 12.3729 19.5371 12.5124 18.9465 12.8167C18.4061 13.0703 17.9412 13.4761 17.6271 13.9834C17.3506 14.4526 17.1998 14.9725 17.1998 15.5178C17.1873 15.9616 17.2878 16.4054 17.4888 16.8112C17.7276 17.2424 18.0543 17.6101 18.4438 17.8891C18.9967 18.2696 19.5873 18.5739 20.2282 18.8022C20.8439 19.0431 21.2586 19.2333 21.4596 19.3982C21.6607 19.563 21.7612 19.7279 21.7612 19.9054C21.7612 20.1337 21.623 20.3492 21.4219 20.438C21.1957 20.5521 20.8565 20.6155 20.379 20.6155C19.8763 20.6155 19.3737 20.5521 18.8962 20.4253C18.3433 20.2985 17.8281 20.0956 17.3381 19.804C17.3004 19.7786 17.2627 19.7659 17.225 19.7913C17.1873 19.8166 17.1747 19.8674 17.1747 19.9054V22.1119C17.1621 22.2134 17.225 22.3021 17.3129 22.3528C17.715 22.5431 18.1548 22.6826 18.5946 22.7586C19.1601 22.8728 19.7255 22.9235 20.3036 22.9235C21.2083 22.9235 21.9623 22.784 22.578 22.5177C23.1434 22.2894 23.6335 21.8963 23.9853 21.3891C24.3121 20.8945 24.488 20.2985 24.4754 19.7025C24.488 19.246 24.3875 18.8022 24.1864 18.3964C23.9476 17.9652 23.6084 17.6101 23.1937 17.3438C22.5905 16.9634 21.9371 16.6464 21.2586 16.4181C20.957 16.2913 20.6554 16.1518 20.3664 15.9996C20.203 15.9109 20.0523 15.7967 19.9392 15.6573C19.8638 15.5558 19.8135 15.4417 19.8135 15.3275C19.8135 15.2134 19.8512 15.0866 19.914 14.9852C20.002 14.8583 20.1402 14.7696 20.3036 14.7315C20.5423 14.6681 20.8062 14.6301 21.0575 14.6428C21.535 14.6428 22 14.7062 22.4649 14.8076Z" class="icon-primary-color"/>
</svg>
