<svg width="31" height="31" viewBox="0 0 31 31" fill="none" xmlns="http://www.w3.org/2000/svg">
<path fill-rule="evenodd" clip-rule="evenodd" d="M24.8652 0.737305H5.3883C2.43535 0.737305 0.0478516 3.18602 0.0478516 6.21469V25.4178C0.0478516 28.4464 2.43535 30.8952 5.3883 30.8952H24.8652C27.8182 30.8952 30.2057 28.4464 30.2057 25.4178V6.21469C30.2057 3.18602 27.8182 0.737305 24.8652 0.737305ZM21.6346 23.3557C20.7155 23.3682 19.7965 23.1813 18.9644 22.7952C18.1819 22.4339 17.5361 21.8359 17.089 21.1009C16.6295 20.341 16.4059 19.3943 16.4059 18.2607C16.3935 17.3388 16.6295 16.4294 17.089 15.6321C17.5609 14.8224 18.244 14.1497 19.0637 13.7012C19.9331 13.2154 20.9763 12.9787 22.2059 12.9787C22.268 12.9787 22.3549 12.9787 22.4667 12.9912C22.5267 12.9978 22.5903 13.0009 22.6594 13.0043L22.6595 13.0043L22.6595 13.0043L22.6595 13.0043C22.7191 13.0072 22.7827 13.0103 22.8517 13.0161V9.07951C22.8517 8.99231 22.889 8.94248 22.9759 8.94248H25.4971C25.5592 8.93003 25.6089 8.97985 25.6213 9.02968V20.9141C25.6213 21.1177 25.6315 21.342 25.6427 21.5867L25.6427 21.5868L25.6461 21.6615C25.6671 21.8828 25.6793 22.0952 25.69 22.2835L25.6958 22.3841C25.6958 22.4713 25.6585 22.546 25.5716 22.5834C24.9258 22.8574 24.2427 23.0568 23.5472 23.1813C22.9138 23.2935 22.2804 23.3557 21.6346 23.3557ZM22.8517 20.8643V15.383C22.7399 15.3581 22.6281 15.3331 22.5164 15.3207C22.3797 15.3082 22.2431 15.2958 22.1065 15.2958C21.6222 15.2958 21.1378 15.3954 20.7031 15.6197C20.2808 15.8314 19.9207 16.1429 19.6474 16.5415C19.3742 16.9402 19.2376 17.4758 19.2376 18.1236C19.2252 18.5596 19.2997 18.9956 19.4487 19.4067C19.5729 19.7431 19.7592 20.0421 20.0076 20.2912C20.2436 20.5154 20.5292 20.6899 20.8521 20.7895C21.1875 20.9016 21.5352 20.9515 21.883 20.9515C22.0693 20.9515 22.2431 20.939 22.4046 20.9265C22.5661 20.939 22.7027 20.9141 22.8517 20.8643ZM12.1708 16.3796L15.8967 10.2131C15.9215 10.1882 15.9464 10.1384 15.934 10.1259C15.9215 10.0637 15.8594 10.0263 15.7973 10.0387H13.1768C13.1147 10.0263 13.065 10.0387 13.0153 10.0637C12.9781 10.0886 12.9532 10.1384 12.9408 10.1882C12.8293 10.3967 12.7178 10.6092 12.6055 10.8234C12.4425 11.1341 12.2778 11.4482 12.1087 11.7579L12.1087 11.7579C11.823 12.2811 11.5374 12.8043 11.2642 13.3275C10.9909 13.8507 10.7177 14.3864 10.4569 14.9345H10.432C10.1712 14.3988 9.898 13.8756 9.59993 13.3524C9.34582 12.9242 9.10834 12.496 8.86708 12.061C8.81355 11.9644 8.75984 11.8676 8.70572 11.7703C8.42006 11.2347 8.14683 10.699 7.91086 10.1633C7.8736 10.1135 7.83634 10.0761 7.78666 10.0512C7.73698 10.0387 7.67488 10.0263 7.61279 10.0263H4.79352C4.74385 10.0263 4.69417 10.0387 4.66933 10.0761C4.64449 10.101 4.65691 10.1509 4.69417 10.2007L8.45732 16.5914L4.59481 22.9446C4.56997 22.982 4.55755 23.0319 4.56997 23.0817C4.56997 23.1288 4.59128 23.126 4.62317 23.1219C4.63344 23.1205 4.6448 23.1191 4.65691 23.1191H7.38923C7.52585 23.1191 7.62521 23.1066 7.67488 22.982C7.8653 22.6415 8.05572 22.29 8.24614 21.9385L8.24619 21.9384C8.34141 21.7626 8.43662 21.5868 8.53184 21.4124C8.80507 20.8892 9.09073 20.3535 9.37638 19.8178L9.37641 19.8178C9.66205 19.2821 9.94769 18.7465 10.2085 18.2108H10.2333C10.5314 18.7589 10.8294 19.2945 11.1274 19.83L11.1275 19.8303C11.4256 20.366 11.7113 20.8892 11.9721 21.3999C12.1025 21.6615 12.236 21.9199 12.3694 22.1784L12.3695 22.1785C12.503 22.437 12.6365 22.6955 12.7669 22.9571C12.8539 23.0817 12.9905 23.0941 13.1892 23.0941H16.0333C16.0621 23.0893 16.0872 23.0919 16.1078 23.0941C16.1406 23.0975 16.1623 23.0998 16.1699 23.0692C16.1823 23.0194 16.1699 22.9696 16.1451 22.9197L12.1708 16.3796Z" class="icon-primary-color"/>
</svg>
