<svg viewBox="0 0 513 348" fill="none" xmlns="http://www.w3.org/2000/svg">
<path d="M217.327 286.601V277.907L207.057 283.837L224.825 314.611C224.889 314.721 224.959 314.825 225.023 314.933C220.139 306.617 217.327 296.941 217.327 286.601Z" class="icon-primary-color"/>
<path d="M225.021 314.929C225.021 314.929 225.021 314.931 225.023 314.931C224.959 314.821 224.889 314.719 224.825 314.609L220.485 307.091L214.561 317.351L245.335 335.119C245.377 335.143 245.421 335.165 245.465 335.189C237.015 330.327 229.955 323.333 225.021 314.929Z" class="icon-primary-color"/>
<path d="M223.325 311.817C223.307 311.781 223.287 311.745 223.269 311.709C223.287 311.745 223.307 311.781 223.325 311.817Z" class="icon-primary-color"/>
<path d="M404.453 319.635C344.681 319.635 296.053 271.007 296.053 211.233C296.053 151.459 344.681 102.831 404.453 102.831C464.227 102.831 512.855 151.459 512.855 211.233C512.855 271.007 464.227 319.635 404.453 319.635V319.635ZM404.453 112.833C350.195 112.833 306.053 156.975 306.053 211.235C306.053 265.495 350.195 309.637 404.453 309.637C458.713 309.637 502.855 265.495 502.855 211.235C502.855 156.975 458.713 112.833 404.453 112.833V112.833Z" class="icon-primary-color"/>
<path d="M329.397 90.0628C326.635 90.0628 324.397 87.8248 324.397 85.0628V16.9268C324.397 13.1408 321.317 10.0608 317.531 10.0608H229.193C225.407 10.0608 222.327 13.1408 222.327 16.9268V85.0628C222.327 87.8248 220.089 90.0628 217.327 90.0628C214.565 90.0628 212.327 87.8248 212.327 85.0628V16.9268C212.327 7.62679 219.893 0.060791 229.193 0.060791H317.531C326.829 0.060791 334.397 7.62679 334.397 16.9268V85.0628C334.397 87.8248 332.157 90.0628 329.397 90.0628V90.0628Z" class="icon-primary-color"/>
<path d="M273.361 347.635C239.707 347.635 212.327 320.255 212.327 286.601V251.067C212.327 248.305 214.565 246.067 217.327 246.067H307.013C309.775 246.067 312.013 248.305 312.013 251.067C312.013 253.829 309.775 256.067 307.013 256.067H222.327V286.601C222.327 314.741 245.221 337.635 273.361 337.635C301.501 337.635 324.397 314.741 324.397 286.601V284.313C324.397 281.551 326.635 279.313 329.397 279.313C332.159 279.313 334.397 281.551 334.397 284.313V286.601C334.397 320.255 307.015 347.635 273.361 347.635V347.635Z" class="icon-primary-color"/>
<path d="M308.047 174.065H217.327C214.565 174.065 212.327 171.827 212.327 169.065V87.0627C212.327 84.3007 214.565 82.0627 217.327 82.0627H329.397C332.159 82.0627 334.397 84.3007 334.397 87.0627V138.155C334.397 140.917 332.159 143.155 329.397 143.155C326.635 143.155 324.397 140.917 324.397 138.155V92.0627H222.327V164.065H308.047C310.809 164.065 313.047 166.303 313.047 169.065C313.047 171.827 310.809 174.065 308.047 174.065Z" class="icon-primary-color"/>
<path d="M307.013 256.067H217.327C214.565 256.067 212.327 253.829 212.327 251.067V169.065C212.327 166.303 214.565 164.065 217.327 164.065H308.047C310.809 164.065 313.047 166.303 313.047 169.065C313.047 171.827 310.809 174.065 308.047 174.065H222.327V246.067H307.013C309.775 246.067 312.013 248.305 312.013 251.067C312.013 253.829 309.775 256.067 307.013 256.067Z" class="icon-primary-color"/>
<path d="M125.061 146.805C123.333 146.805 121.651 145.909 120.727 144.305L85.6594 83.5647C83.4074 79.6627 82.8074 75.1187 83.9734 70.7667C85.1394 66.4147 87.9314 62.7787 91.8314 60.5267L168.335 16.3567C176.387 11.7087 186.723 14.4787 191.373 22.5287L221.657 74.9847C223.037 77.3767 222.219 80.4347 219.827 81.8147C217.433 83.1967 214.377 82.3767 212.997 79.9847L182.713 27.5287C180.819 24.2507 176.613 23.1247 173.335 25.0167L96.8314 69.1867C95.2434 70.1027 94.1074 71.5847 93.6314 73.3547C93.1574 75.1267 93.4014 76.9767 94.3174 78.5647L129.385 139.305C130.765 141.697 129.947 144.755 127.555 146.135C126.769 146.589 125.909 146.805 125.061 146.805V146.805Z" class="icon-primary-color"/>
<path d="M207.063 288.837C205.335 288.837 203.653 287.941 202.729 286.337C201.349 283.945 202.167 280.887 204.559 279.507L214.827 273.579C217.217 272.197 220.277 273.017 221.657 275.409C223.037 277.801 222.219 280.859 219.827 282.239L209.559 288.167C208.771 288.621 207.911 288.837 207.063 288.837Z" class="icon-primary-color"/>
<path d="M166.063 217.821C164.335 217.821 162.653 216.925 161.729 215.321C160.349 212.929 161.167 209.871 163.559 208.491L214.829 178.891C217.219 177.507 220.279 178.331 221.659 180.721C223.039 183.113 222.221 186.171 219.829 187.551L168.559 217.151C167.771 217.605 166.909 217.821 166.063 217.821Z" class="icon-primary-color"/>
<path d="M125.061 146.805C123.333 146.805 121.651 145.909 120.727 144.305C119.347 141.913 120.165 138.855 122.557 137.475L214.827 84.2009C217.217 82.8169 220.277 83.6389 221.657 86.0309C223.037 88.4229 222.219 91.4809 219.827 92.8609L127.557 146.135C126.769 146.589 125.909 146.805 125.061 146.805V146.805Z" class="icon-primary-color"/>
<path d="M72.5254 240.351C71.6774 240.351 70.8174 240.135 70.0294 239.681L9.28944 204.613C5.38744 202.361 2.59744 198.723 1.43144 194.373C0.265441 190.021 0.863441 185.477 3.11544 181.575L47.2854 105.071C49.5374 101.169 53.1734 98.3787 57.5254 97.2127C61.8754 96.0467 66.4194 96.6447 70.3234 98.8967L122.761 129.173C125.153 130.553 125.971 133.611 124.591 136.003C123.211 138.393 120.151 139.213 117.761 137.833L65.3254 107.557C63.7374 106.641 61.8874 106.397 60.1154 106.871C58.3434 107.345 56.8654 108.481 55.9474 110.069L11.7774 186.575C9.88544 189.853 11.0114 194.061 14.2894 195.953L75.0294 231.021C77.4214 232.401 78.2394 235.459 76.8594 237.851C75.9354 239.455 74.2534 240.351 72.5254 240.351V240.351Z" class="icon-primary-color"/>
<path d="M242.921 339.495L212.061 321.683C209.669 320.303 208.851 317.245 210.231 314.853C211.609 312.463 214.667 311.641 217.061 313.023L247.835 330.789L245.465 335.191L242.921 339.495Z" class="icon-primary-color"/>
<path d="M143.541 281.353C142.693 281.353 141.833 281.137 141.045 280.683L70.0294 239.683C68.8814 239.019 68.0434 237.929 67.6994 236.647C67.3574 235.367 67.5354 234.001 68.1994 232.853L121.467 140.591C122.361 139.045 124.011 138.091 125.797 138.091C127.583 138.091 129.233 139.045 130.127 140.591L177.471 222.593C178.365 224.139 178.365 226.047 177.471 227.593L147.875 278.853C146.949 280.455 145.269 281.353 143.541 281.353V281.353ZM79.3594 233.521L141.715 269.521L167.367 225.091L125.797 153.089L79.3594 233.521Z" class="icon-primary-color"/>
<path d="M220.489 312.093C218.761 312.093 217.079 311.197 216.155 309.593L168.811 227.591C167.431 225.199 168.249 222.141 170.641 220.761C173.033 219.375 176.091 220.199 177.471 222.591L224.815 304.593C226.195 306.985 225.377 310.043 222.985 311.423C222.197 311.877 221.337 312.093 220.489 312.093Z" class="icon-primary-color"/>
<path d="M214.557 322.353C213.709 322.353 212.849 322.137 212.061 321.683C209.669 320.303 208.851 317.245 210.231 314.853L216.155 304.593C217.533 302.201 220.591 301.379 222.985 302.763C225.377 304.143 226.195 307.201 224.815 309.593L218.891 319.853C217.965 321.457 216.285 322.353 214.557 322.353Z" class="icon-primary-color"/>
<path d="M214.557 322.353C213.709 322.353 212.849 322.137 212.061 321.683L141.045 280.683C138.653 279.303 137.835 276.245 139.215 273.853C140.593 271.463 143.653 270.639 146.045 272.023L217.061 313.023C219.453 314.403 220.271 317.461 218.891 319.853C217.965 321.455 216.285 322.353 214.557 322.353V322.353Z" class="icon-primary-color"/>
<path d="M273.361 316.203C260.809 316.203 250.595 305.989 250.595 293.435C250.595 280.881 260.809 270.669 273.361 270.669C285.915 270.669 296.129 280.881 296.129 293.435C296.129 305.989 285.915 316.203 273.361 316.203V316.203ZM273.361 280.667C266.321 280.667 260.595 286.395 260.595 293.433C260.595 300.473 266.321 306.201 273.361 306.201C280.403 306.201 286.129 300.473 286.129 293.433C286.129 286.395 280.401 280.667 273.361 280.667V280.667Z" class="icon-secondary-color"/>
<path d="M427.233 267.691C418.811 267.691 411.959 260.839 411.959 252.417C411.959 243.995 418.811 237.143 427.233 237.143C427.557 237.143 427.831 236.869 427.831 236.547C427.831 226.867 428.513 219.441 435.001 211.235C428.497 203.005 427.831 195.405 427.831 185.925C427.831 185.601 427.557 185.329 427.233 185.329C418.811 185.329 411.959 178.477 411.959 170.053C411.959 161.631 418.811 154.779 427.233 154.779C444.407 154.779 458.379 168.751 458.379 185.925V190.333C458.379 191.911 459.243 192.755 461.363 194.441C462.085 195.015 462.831 195.607 463.513 196.301C467.807 200.081 470.267 205.509 470.267 211.235C470.267 216.961 467.809 222.389 463.515 226.167C462.817 226.877 462.059 227.479 461.325 228.063C459.187 229.765 458.377 230.557 458.377 232.139V236.545C458.381 253.719 444.407 267.691 427.233 267.691V267.691ZM437.825 236.873C437.651 242.565 432.967 247.141 427.233 247.141C424.325 247.141 421.959 249.507 421.959 252.415C421.959 255.323 424.325 257.689 427.233 257.689C438.893 257.689 448.379 248.203 448.379 236.543V232.137C448.379 225.583 452.587 222.235 455.101 220.235C456.817 218.867 456.171 219.289 456.813 218.741C459.007 216.859 460.267 214.121 460.267 211.233C460.267 208.345 459.007 205.605 456.811 203.723C456.051 203.071 456.893 203.661 455.139 202.265C452.775 200.387 448.377 196.889 448.377 190.329V185.921C448.377 174.261 438.891 164.775 427.231 164.775C424.323 164.775 421.957 167.141 421.957 170.049C421.957 172.959 424.323 175.325 427.231 175.325C432.965 175.325 437.651 179.903 437.823 185.595C437.879 186.205 437.863 186.845 437.841 187.665C437.741 191.429 437.509 200.243 445.207 207.623C446.191 208.565 446.749 209.871 446.749 211.233C446.749 212.597 446.193 213.899 445.207 214.843C437.505 222.221 437.743 231.021 437.841 234.779C437.865 235.611 437.883 236.257 437.825 236.873V236.873Z" class="icon-secondary-color"/>
<path d="M381.671 267.691C364.497 267.691 350.525 253.719 350.525 236.545V232.139C350.525 230.559 349.659 229.713 347.535 228.023C346.815 227.449 346.073 226.859 345.391 226.167C341.099 222.389 338.639 216.961 338.639 211.233C338.639 205.505 341.097 200.079 345.389 196.301C346.093 195.585 346.853 194.979 347.593 194.391C349.721 192.697 350.527 191.907 350.527 190.329V185.921C350.527 168.747 364.499 154.775 381.673 154.775C390.095 154.775 396.947 161.627 396.947 170.049C396.947 178.471 390.095 185.325 381.673 185.325C381.351 185.325 381.077 185.597 381.077 185.921C381.077 195.517 380.407 203.013 373.907 211.231C380.205 219.195 381.077 226.479 381.077 236.541C381.077 236.865 381.351 237.137 381.673 237.137C390.095 237.137 396.947 243.989 396.947 252.411C396.947 260.833 390.093 267.691 381.671 267.691V267.691ZM381.671 164.779C370.011 164.779 360.525 174.265 360.525 185.925V190.333C360.525 196.881 356.327 200.223 353.819 202.219C353.289 202.639 352.745 203.075 352.487 203.349C352.361 203.481 352.229 203.607 352.091 203.727C349.895 205.609 348.637 208.345 348.637 211.235C348.637 214.125 349.895 216.861 352.091 218.743C352.229 218.861 352.363 218.989 352.485 219.121C352.719 219.369 353.247 219.789 353.759 220.197C356.125 222.077 360.525 225.577 360.525 232.139V236.545C360.525 248.205 370.011 257.691 381.671 257.691C384.579 257.691 386.945 255.325 386.945 252.417C386.945 249.509 384.579 247.143 381.671 247.143C375.939 247.143 371.253 242.565 371.081 236.873C371.025 236.263 371.041 235.623 371.063 234.801C371.163 231.037 371.397 222.223 363.695 214.845C362.711 213.903 362.153 212.597 362.153 211.235C362.153 209.873 362.709 208.567 363.695 207.625C371.399 200.247 371.161 191.447 371.063 187.689C371.039 186.859 371.023 186.213 371.081 185.597C371.255 179.905 375.939 175.329 381.671 175.329C384.579 175.329 386.945 172.963 386.945 170.053C386.945 167.145 384.579 164.779 381.671 164.779V164.779ZM376.075 185.923H376.095H376.075Z" class="icon-secondary-color"/>
</svg>
