<svg  viewBox="0 0 378 484" fill="none" xmlns="http://www.w3.org/2000/svg">
<path d="M189.368 32.0088C186.606 32.0088 184.368 29.7708 184.368 27.0088V5.28076C184.368 2.51876 186.606 0.280762 189.368 0.280762C192.13 0.280762 194.368 2.51876 194.368 5.28076V27.0088C194.368 29.7708 192.13 32.0088 189.368 32.0088Z" class="icon-secondary-color"/>
<path d="M108.43 53.6988C106.702 53.6988 105.02 52.8028 104.096 51.1988L93.2316 32.3808C91.8516 29.9908 92.6696 26.9308 95.0616 25.5508C97.4516 24.1668 100.512 24.9908 101.892 27.3808L112.756 46.1988C114.136 48.5888 113.318 51.6488 110.926 53.0288C110.138 53.4828 109.278 53.6988 108.43 53.6988Z" class="icon-secondary-color"/>
<path d="M49.1655 112.953C48.3175 112.953 47.4575 112.739 46.6695 112.283L27.8515 101.417C25.4595 100.037 24.6415 96.9768 26.0215 94.5868C27.3995 92.1948 30.4595 91.3728 32.8515 92.7568L51.6695 103.623C54.0615 105.003 54.8795 108.063 53.4995 110.453C52.5755 112.055 50.8935 112.953 49.1655 112.953Z" class="icon-secondary-color"/>
<path d="M348.376 285.701C347.528 285.701 346.668 285.487 345.88 285.031L327.062 274.165C324.67 272.785 323.852 269.725 325.232 267.335C326.612 264.943 329.672 264.123 332.062 265.505L350.88 276.371C353.272 277.751 354.09 280.811 352.71 283.201C351.786 284.803 350.106 285.701 348.376 285.701Z" class="icon-secondary-color"/>
<path d="M27.4835 193.893H5.75354C2.99154 193.893 0.75354 191.655 0.75354 188.893C0.75354 186.131 2.99154 183.893 5.75354 183.893H27.4835C30.2455 183.893 32.4835 186.131 32.4835 188.893C32.4835 191.655 30.2455 193.893 27.4835 193.893Z" class="icon-secondary-color"/>
<path d="M372.981 193.893H351.251C348.489 193.893 346.251 191.655 346.251 188.893C346.251 186.131 348.489 183.893 351.251 183.893H372.981C375.743 183.893 377.981 186.131 377.981 188.893C377.981 191.655 375.741 193.893 372.981 193.893Z" class="icon-secondary-color"/>
<path d="M30.3595 285.701C28.6315 285.701 26.9495 284.805 26.0255 283.201C24.6455 280.811 25.4635 277.751 27.8555 276.371L46.6735 265.505C49.0635 264.121 52.1235 264.945 53.5035 267.335C54.8835 269.725 54.0655 272.785 51.6735 274.165L32.8555 285.031C32.0675 285.485 31.2055 285.701 30.3595 285.701Z" class="icon-secondary-color"/>
<path d="M329.569 112.953C327.841 112.953 326.159 112.057 325.235 110.453C323.855 108.063 324.673 105.003 327.065 103.623L345.883 92.7568C348.273 91.3728 351.333 92.1948 352.713 94.5868C354.093 96.9768 353.275 100.037 350.883 101.417L332.065 112.283C331.277 112.737 330.415 112.953 329.569 112.953Z" class="icon-secondary-color"/>
<path d="M270.306 53.6988C269.458 53.6988 268.598 53.4848 267.81 53.0288C265.418 51.6488 264.6 48.5888 265.98 46.1988L276.844 27.3808C278.222 24.9908 281.282 24.1668 283.674 25.5508C286.066 26.9308 286.884 29.9908 285.504 32.3808L274.64 51.1988C273.714 52.8008 272.034 53.6988 270.306 53.6988Z" class="icon-secondary-color"/>
<path d="M227.54 382.583H151.196C134.85 382.583 121.552 369.287 121.552 352.941V327.523C121.552 318.539 116.986 310.015 109.338 304.723C69.5276 277.175 46.8436 231.849 48.6596 183.475C50.0096 147.511 65.0896 113.709 91.1176 88.2987C117.14 62.8947 151.294 48.6167 187.288 48.0967C225.302 47.6107 261.15 61.9347 288.206 88.6047C315.27 115.279 330.174 150.897 330.174 188.893C330.174 235.029 307.498 278.297 269.516 304.639C261.792 309.995 257.182 318.705 257.182 327.941V352.939C257.184 369.287 243.886 382.583 227.54 382.583ZM187.434 58.0987C154.012 58.5807 122.286 71.8467 98.1036 95.4567C73.9176 119.067 59.9076 150.459 58.6536 183.851C56.9656 228.795 78.0396 270.905 115.028 296.499C125.376 303.657 131.554 315.255 131.554 327.523V352.941C131.554 363.771 140.366 372.583 151.198 372.583H227.542C238.374 372.583 247.186 363.771 247.186 352.941V327.943C247.186 315.429 253.404 303.647 263.822 296.421C299.112 271.949 320.18 231.751 320.18 188.893C320.18 153.595 306.334 120.509 281.192 95.7267C256.054 70.9527 222.764 57.5527 187.434 58.0987ZM187.362 53.0987H187.382H187.362Z" class="icon-primary-color"/>
<path d="M225.628 447.181H153.107C141.537 447.181 132.125 437.769 132.125 426.201V373.971C132.125 371.209 134.363 368.971 137.125 368.971C139.887 368.971 142.125 371.209 142.125 373.971V426.201C142.125 432.255 147.051 437.181 153.107 437.181H225.628C231.684 437.181 236.609 432.255 236.609 426.201V374.169C236.609 371.407 238.847 369.169 241.609 369.169C244.371 369.169 246.609 371.407 246.609 374.169V426.201C246.609 437.769 237.198 447.181 225.628 447.181Z" class="icon-primary-color"/>
<path d="M197.795 483.415H180.939C173.939 483.415 167.575 479.287 164.721 472.895L152.359 445.205C151.233 442.683 152.365 439.727 154.887 438.599C157.409 437.475 160.365 438.605 161.491 441.127L173.853 468.817C175.101 471.609 177.881 473.415 180.939 473.415H197.795C200.853 473.415 203.635 471.611 204.881 468.817L217.361 440.861C218.487 438.341 221.441 437.209 223.965 438.333C226.487 439.459 227.619 442.417 226.493 444.939L214.013 472.895C211.159 479.287 204.793 483.415 197.795 483.415Z" class="icon-primary-color"/>
<path d="M239.476 413.063H139.26C136.498 413.063 134.26 410.825 134.26 408.063C134.26 405.301 136.498 403.063 139.26 403.063H239.476C242.238 403.063 244.476 405.301 244.476 408.063C244.476 410.825 242.238 413.063 239.476 413.063Z" class="icon-primary-color"/>
<path d="M245.74 178.919C243.42 178.919 241.344 177.295 240.852 174.943C240.746 174.475 238.571 165.341 228.025 162.069C225.389 161.251 223.914 158.449 224.732 155.813C225.55 153.175 228.355 151.703 230.987 152.519C247.379 157.603 250.52 172.307 250.646 172.929C251.192 175.637 249.44 178.273 246.732 178.819C246.398 178.885 246.066 178.919 245.74 178.919Z" class="icon-secondary-color"/>
<path d="M237.15 199.003C234.97 199.003 232.968 197.565 232.342 195.367C230.478 188.793 232.424 181.765 237.422 177.025C242.46 172.249 249.39 170.735 255.962 172.989C260.604 174.577 264.348 177.879 266.506 182.285C267.72 184.765 266.696 187.759 264.214 188.975C261.738 190.189 258.74 189.169 257.524 186.683C256.54 184.675 254.836 183.173 252.722 182.449C249.736 181.425 246.588 182.113 244.3 184.281C241.976 186.485 241.102 189.607 241.962 192.635C242.714 195.293 241.172 198.057 238.516 198.811C238.062 198.941 237.602 199.003 237.15 199.003Z" class="icon-secondary-color"/>
<path d="M180.113 211.043C180.579 211.043 181.055 211.109 181.527 211.249C184.177 212.029 185.693 214.807 184.913 217.457C183.493 222.283 180.103 226.383 175.613 228.707C171.187 230.997 166.113 231.357 161.323 229.717C156.683 228.129 152.939 224.829 150.779 220.425C149.563 217.947 150.587 214.951 153.067 213.735C155.547 212.519 158.541 213.541 159.759 216.023C160.743 218.029 162.449 219.535 164.563 220.257C167.359 221.217 169.617 220.551 171.019 219.825C173.099 218.749 174.667 216.859 175.321 214.633C175.959 212.455 177.951 211.043 180.113 211.043Z" class="icon-secondary-color"/>
<path d="M132.991 178.893C132.653 178.893 132.307 178.857 131.963 178.785C129.279 178.219 127.547 175.617 128.089 172.927C128.215 172.303 131.355 157.601 147.747 152.517C150.383 151.703 153.185 153.173 154.003 155.811C154.821 158.447 153.345 161.249 150.709 162.067C140.113 165.355 137.967 174.555 137.881 174.945C137.367 177.283 135.293 178.893 132.991 178.893Z" class="icon-secondary-color"/>
<path d="M141.586 199.003C141.134 199.003 140.674 198.941 140.218 198.811C137.56 198.057 136.018 195.293 136.772 192.635C137.632 189.607 136.755 186.485 134.433 184.281C132.145 182.113 128.999 181.427 126.011 182.449C123.897 183.173 122.191 184.675 121.209 186.683C119.995 189.163 117.001 190.195 114.519 188.975C112.039 187.761 111.013 184.767 112.227 182.285C114.385 177.879 118.132 174.577 122.772 172.989C129.338 170.735 136.271 172.249 141.311 177.025C146.309 181.765 148.255 188.793 146.391 195.367C145.767 197.565 143.764 199.003 141.586 199.003Z" class="icon-secondary-color"/>
<path d="M198.621 211.043C200.783 211.043 202.775 212.455 203.415 214.633C204.069 216.857 205.637 218.749 207.717 219.825C209.119 220.549 211.377 221.215 214.173 220.257C216.287 219.535 217.993 218.029 218.977 216.023C220.191 213.543 223.189 212.519 225.669 213.735C228.147 214.949 229.171 217.945 227.957 220.425C225.797 224.829 222.053 228.131 217.413 229.717C212.625 231.353 207.551 230.997 203.123 228.707C198.633 226.383 195.243 222.283 193.823 217.457C193.043 214.807 194.559 212.027 197.209 211.249C197.679 211.109 198.155 211.043 198.621 211.043Z" class="icon-secondary-color"/>
<path d="M220.222 282.275C219.606 282.275 218.988 282.255 218.366 282.213C204.49 281.277 193.622 269.325 193.622 255.003V126.803C193.622 112.561 204.438 100.623 218.248 99.6269C229.374 98.8049 239.906 105.113 244.46 115.277C244.756 115.935 245.47 116.409 246.37 116.545C269.922 120.091 286.24 141.373 283.518 164.993C283.412 165.921 283.718 166.773 284.334 167.271C291.844 173.331 296.15 182.323 296.15 191.943C296.15 201.319 292.02 210.163 284.82 216.215C284.174 216.757 283.812 217.501 283.798 218.309C283.51 235.887 270.84 251.211 253.668 254.747C249.858 255.533 246.914 258.197 246.162 261.535C243.406 273.799 232.66 282.275 220.222 282.275ZM220.16 109.557C219.764 109.557 219.366 109.573 218.966 109.599C210.36 110.221 203.62 117.777 203.62 126.803V255.001C203.62 264.081 210.392 271.651 219.038 272.235C227.288 272.757 234.6 267.367 236.404 259.341C238.014 252.175 243.998 246.529 251.648 244.953C264.272 242.353 273.586 231.077 273.798 218.145C273.858 214.449 275.53 210.955 278.386 208.557C283.318 204.413 286.148 198.357 286.148 191.943C286.148 185.361 283.196 179.205 278.052 175.053C274.752 172.391 273.08 168.203 273.582 163.851C275.682 145.611 263.076 129.175 244.88 126.435C240.596 125.791 237.028 123.149 235.334 119.369C232.654 113.389 226.658 109.557 220.16 109.557Z" class="icon-secondary-color"/>
<path d="M158.514 282.275C146.074 282.275 135.33 273.801 132.574 261.533C131.824 258.195 128.878 255.531 125.068 254.745C107.896 251.209 95.2236 235.885 94.9376 218.307C94.9236 217.499 94.5616 216.757 93.9176 216.215C86.7156 210.163 82.5856 201.317 82.5856 191.941C82.5856 182.321 86.8916 173.329 94.4016 167.269C95.0196 166.771 95.3236 165.919 95.2176 164.989C92.4976 141.373 108.816 120.093 132.368 116.547C133.268 116.411 133.982 115.935 134.278 115.277C138.832 105.113 149.368 98.8027 160.49 99.6267C174.298 100.623 185.116 112.561 185.116 126.803V255.001C185.116 269.323 174.246 281.277 160.372 282.211C159.748 282.255 159.128 282.275 158.514 282.275ZM100.682 175.051C95.5376 179.203 92.5856 185.359 92.5856 191.941C92.5856 198.355 95.4156 204.409 100.35 208.557C103.204 210.953 104.876 214.447 104.936 218.143C105.148 231.077 114.464 242.351 127.086 244.951C134.736 246.527 140.72 252.173 142.33 259.339C144.134 267.367 151.464 272.781 159.696 272.233C168.342 271.649 175.114 264.079 175.114 254.999V126.803C175.114 117.777 168.374 110.221 159.768 109.599C152.844 109.145 146.244 113.021 143.4 119.367C141.706 123.149 138.136 125.789 133.854 126.435C115.658 129.173 103.052 145.609 105.152 163.847C105.654 168.203 103.984 172.389 100.682 175.051Z" class="icon-secondary-color"/>
</svg>
