<svg  viewBox="0 0 513 427" fill="none" xmlns="http://www.w3.org/2000/svg">
<path d="M120.274 268.353H57.3344C50.4264 268.353 44.8044 262.731 44.8044 255.823V174.881C44.8044 167.973 50.4264 162.351 57.3344 162.351H120.276C127.184 162.351 132.806 167.973 132.806 174.881V255.823C132.804 262.731 127.182 268.353 120.274 268.353V268.353ZM57.3344 172.353C55.9404 172.353 54.8044 173.487 54.8044 174.883V255.825C54.8044 257.219 55.9384 258.355 57.3344 258.355H120.276C121.67 258.355 122.806 257.221 122.806 255.825V174.883C122.806 173.489 121.672 172.353 120.276 172.353H57.3344Z" class="icon-secondary-color"/>
<path d="M216.638 268.353H157.334C150.426 268.353 144.804 262.731 144.804 255.823V174.881C144.804 167.973 150.426 162.351 157.334 162.351H216.868C219.63 162.351 221.868 164.589 221.868 167.351C221.868 170.113 219.63 172.351 216.868 172.351H157.334C155.94 172.351 154.804 173.485 154.804 174.881V255.823C154.804 257.217 155.938 258.353 157.334 258.353H216.638C219.4 258.353 221.638 260.591 221.638 263.353C221.638 266.115 219.4 268.353 216.638 268.353Z" class="icon-secondary-color"/>
<path d="M365.305 244.923H269.541C262.569 244.923 256.895 239.251 256.895 232.279V202.609C256.895 195.637 262.569 189.963 269.541 189.963H370.993C373.755 189.963 375.993 192.201 375.993 194.963C375.993 197.725 373.755 199.963 370.993 199.963H269.541C268.083 199.963 266.895 201.151 266.895 202.609V232.279C266.895 233.737 268.083 234.923 269.541 234.923H365.305C368.067 234.923 370.305 237.161 370.305 239.923C370.305 242.685 368.067 244.923 365.305 244.923Z" class="icon-secondary-color"/>
<path d="M365.305 313.923H269.541C262.569 313.923 256.895 308.251 256.895 301.279V271.609C256.895 264.637 262.569 258.963 269.541 258.963H365.493C368.255 258.963 370.493 261.201 370.493 263.963C370.493 266.725 368.255 268.963 365.493 268.963H269.541C268.083 268.963 266.895 270.151 266.895 271.609V301.279C266.895 302.737 268.083 303.923 269.541 303.923H365.305C368.067 303.923 370.305 306.161 370.305 308.923C370.305 311.685 368.067 313.923 365.305 313.923Z" class="icon-secondary-color"/>
<path d="M364.993 382.923H269.541C262.569 382.923 256.895 377.251 256.895 370.279V340.609C256.895 333.637 262.569 327.963 269.541 327.963H365.181C367.943 327.963 370.181 330.201 370.181 332.963C370.181 335.725 367.943 337.963 365.181 337.963H269.541C268.083 337.963 266.895 339.151 266.895 340.609V370.279C266.895 371.737 268.083 372.923 269.541 372.923H364.993C367.755 372.923 369.993 375.161 369.993 377.923C369.993 380.685 367.755 382.923 364.993 382.923Z" class="icon-secondary-color"/>
<path d="M236.846 426.857H150.24C141.372 426.857 134.158 419.643 134.158 410.775C134.158 401.907 141.372 394.695 150.24 394.695H216.866C219.628 394.695 221.866 396.933 221.866 399.695C221.866 402.457 219.628 404.695 216.866 404.695H150.24C146.886 404.695 144.158 407.421 144.158 410.775C144.158 414.129 146.886 416.857 150.24 416.857H236.846C239.608 416.857 241.846 419.095 241.846 421.857C241.846 424.619 239.606 426.857 236.846 426.857Z" class="icon-primary-color"/>
<path d="M186.571 403.165C183.809 403.165 181.571 400.927 181.571 398.165V350.437C181.571 347.675 183.809 345.437 186.571 345.437C189.333 345.437 191.571 347.675 191.571 350.437V398.165C191.571 400.927 189.333 403.165 186.571 403.165Z" class="icon-primary-color"/>
<path d="M387.847 426.857H236.845C223.803 426.857 213.195 416.247 213.195 403.207V116.477C213.195 103.435 223.805 92.8267 236.845 92.8267H438.283C451.325 92.8267 461.933 103.437 461.933 116.477V186.769C461.933 189.531 459.695 191.769 456.933 191.769C454.171 191.769 451.933 189.531 451.933 186.769V116.477C451.933 108.949 445.809 102.827 438.283 102.827H236.847C229.319 102.827 223.197 108.951 223.197 116.477V403.207C223.197 410.735 229.321 416.857 236.847 416.857H387.849C390.611 416.857 392.849 419.095 392.849 421.857C392.849 424.619 390.609 426.857 387.847 426.857Z" class="icon-primary-color"/>
<path d="M217.055 353.907H29.4645C13.6625 353.907 0.804504 341.049 0.804504 325.247V29.4966C0.804504 13.6946 13.6625 0.838623 29.4645 0.838623H433.275C449.077 0.838623 461.932 13.6946 461.932 29.4966V116.473C461.932 119.235 459.694 121.473 456.932 121.473C454.171 121.473 451.932 119.235 451.932 116.473V29.4966C451.932 19.2066 443.562 10.8386 433.275 10.8386H29.4645C19.1745 10.8386 10.8045 19.2086 10.8045 29.4966V325.247C10.8045 335.537 19.1765 343.907 29.4645 343.907H217.055C219.816 343.907 222.055 346.145 222.055 348.907C222.055 351.669 219.816 353.907 217.055 353.907Z" class="icon-primary-color"/>
<path d="M486.353 426.857H387.847C373.261 426.857 361.395 414.991 361.395 400.405V209.515C361.395 194.929 373.261 183.063 387.847 183.063H486.353C500.939 183.063 512.805 194.929 512.805 209.515V400.405C512.805 414.991 500.939 426.857 486.353 426.857ZM387.847 193.063C378.777 193.063 371.395 200.443 371.395 209.515V400.405C371.395 409.475 378.775 416.857 387.847 416.857H486.353C495.423 416.857 502.805 409.477 502.805 400.405V209.515C502.805 200.445 495.425 193.063 486.353 193.063H387.847Z" class="icon-primary-color"/>
<path d="M73.8044 78.3525H61.8044C59.0424 78.3525 56.8044 76.1145 56.8044 73.3525C56.8044 70.5905 59.0424 68.3525 61.8044 68.3525H73.8044C76.5664 68.3525 78.8044 70.5905 78.8044 73.3525C78.8044 76.1145 76.5664 78.3525 73.8044 78.3525Z" class="icon-secondary-color"/>
<path d="M108.804 78.3525H96.8044C94.0424 78.3525 91.8044 76.1145 91.8044 73.3525C91.8044 70.5905 94.0424 68.3525 96.8044 68.3525H108.804C111.566 68.3525 113.804 70.5905 113.804 73.3525C113.804 76.1145 111.566 78.3525 108.804 78.3525Z" class="icon-secondary-color"/>
<path d="M143.804 78.3525H131.804C129.042 78.3525 126.804 76.1145 126.804 73.3525C126.804 70.5905 129.042 68.3525 131.804 68.3525H143.804C146.566 68.3525 148.804 70.5905 148.804 73.3525C148.804 76.1145 146.566 78.3525 143.804 78.3525Z" class="icon-secondary-color"/>
<path d="M275.804 146.353H263.804C261.042 146.353 258.804 144.115 258.804 141.353C258.804 138.591 261.042 136.353 263.804 136.353H275.804C278.566 136.353 280.804 138.591 280.804 141.353C280.804 144.115 278.566 146.353 275.804 146.353Z" class="icon-secondary-color"/>
<path d="M310.804 146.353H298.804C296.042 146.353 293.804 144.115 293.804 141.353C293.804 138.591 296.042 136.353 298.804 136.353H310.804C313.566 136.353 315.804 138.591 315.804 141.353C315.804 144.115 313.566 146.353 310.804 146.353Z" class="icon-secondary-color"/>
<path d="M345.804 146.353H333.804C331.042 146.353 328.804 144.115 328.804 141.353C328.804 138.591 331.042 136.353 333.804 136.353H345.804C348.566 136.353 350.804 138.591 350.804 141.353C350.804 144.115 348.566 146.353 345.804 146.353Z" class="icon-secondary-color"/>
<path d="M467.804 244.353H455.804C453.042 244.353 450.804 242.115 450.804 239.353C450.804 236.591 453.042 234.353 455.804 234.353H467.804C470.566 234.353 472.804 236.591 472.804 239.353C472.804 242.115 470.566 244.353 467.804 244.353Z" class="icon-secondary-color"/>
<path d="M482.66 408.003H391.54C385.316 408.003 380.25 402.939 380.25 396.711V213.207C380.25 206.981 385.314 201.915 391.54 201.915H413.61C418.778 201.915 423.334 204.975 425.218 209.711C427.166 214.611 431.83 217.777 437.1 217.777C442.37 217.777 447.036 214.611 448.982 209.711C450.864 204.975 455.42 201.915 460.588 201.915H482.658C488.882 201.915 493.948 206.979 493.948 213.207V396.711C493.948 402.939 488.884 408.003 482.66 408.003ZM391.54 211.917C390.83 211.917 390.25 212.497 390.25 213.209V396.713C390.25 397.423 390.828 398.005 391.54 398.005H482.66C483.37 398.005 483.95 397.425 483.95 396.713V213.209C483.95 212.499 483.372 211.917 482.66 211.917H460.59C459.56 211.917 458.632 212.517 458.278 213.409C454.808 222.139 446.494 227.781 437.102 227.781C427.708 227.781 419.394 222.141 415.926 213.407C415.57 212.517 414.64 211.917 413.612 211.917H391.54Z" class="icon-primary-color"/>
<path d="M365.68 406.499H240.394C236.62 406.499 233.552 403.431 233.552 399.659V120.025C233.552 116.251 236.62 113.183 240.394 113.183H434.736C438.508 113.183 441.576 116.251 441.576 120.025V187.103C441.576 189.865 439.338 192.103 436.576 192.103C433.814 192.103 431.576 189.865 431.576 187.103V123.183H243.552V396.499H365.678C368.44 396.499 370.678 398.737 370.678 401.499C370.678 404.261 368.44 406.499 365.68 406.499Z" class="icon-primary-color"/>
<path d="M217.431 290.813H7.17853C4.41653 290.813 2.17853 288.575 2.17853 285.813C2.17853 283.051 4.41653 280.813 7.17853 280.813H217.431C220.193 280.813 222.431 283.051 222.431 285.813C222.431 288.575 220.193 290.813 217.431 290.813Z" class="icon-primary-color"/>
<path d="M25.5205 289.853C22.7585 289.853 20.5205 287.615 20.5205 284.853V29.4967C20.5205 24.5667 24.5325 20.5547 29.4645 20.5547H433.275C438.207 20.5547 442.219 24.5667 442.219 29.4967V96.6027C442.219 99.3647 439.98 101.603 437.219 101.603C434.457 101.603 432.219 99.3647 432.219 96.6027V30.5567H30.5205V284.853C30.5205 287.615 28.2825 289.853 25.5205 289.853Z" class="icon-primary-color"/>
<path d="M435.866 54.3525H26.8884C24.1264 54.3525 21.8884 52.1145 21.8884 49.3525C21.8884 46.5905 24.1264 44.3525 26.8884 44.3525H435.866C438.628 44.3525 440.866 46.5905 440.866 49.3525C440.866 52.1145 438.628 54.3525 435.866 54.3525Z" class="icon-primary-color"/>
<path d="M57.8044 52.8526C55.0424 52.8526 52.8044 50.6146 52.8044 47.8526V26.6646C52.8044 23.9026 55.0424 21.6646 57.8044 21.6646C60.5664 21.6646 62.8044 23.9026 62.8044 26.6646V47.8526C62.8044 50.6146 60.5664 52.8526 57.8044 52.8526Z" class="icon-primary-color"/>
<path d="M466.303 342.739H407.901C401.945 342.739 397.103 337.895 397.103 331.941V317.493C397.103 311.537 401.947 306.693 407.901 306.693H466.303C472.259 306.693 477.101 311.539 477.101 317.493V331.941C477.101 337.895 472.259 342.739 466.303 342.739ZM407.901 316.693C407.459 316.693 407.103 317.053 407.103 317.493V331.941C407.103 332.383 407.461 332.739 407.901 332.739H466.303C466.745 332.739 467.101 332.381 467.101 331.941V317.493C467.101 317.051 466.743 316.693 466.303 316.693H407.901Z" class="icon-secondary-color"/>
<path d="M466.303 388.013H407.901C401.945 388.013 397.103 383.167 397.103 377.213V362.765C397.103 356.809 401.947 351.967 407.901 351.967H466.303C472.259 351.967 477.101 356.811 477.101 362.765V377.213C477.101 383.167 472.259 388.013 466.303 388.013ZM407.901 361.967C407.459 361.967 407.103 362.325 407.103 362.765V377.213C407.103 377.655 407.461 378.013 407.901 378.013H466.303C466.745 378.013 467.101 377.653 467.101 377.213V362.765C467.101 362.323 466.743 361.967 466.303 361.967H407.901Z" class="icon-secondary-color"/>
<path d="M466.303 297.467H407.901C401.945 297.467 397.103 292.623 397.103 286.669V272.221C397.103 266.265 401.947 261.423 407.901 261.423H466.303C472.259 261.423 477.101 266.267 477.101 272.221V286.669C477.101 292.623 472.259 297.467 466.303 297.467ZM407.901 271.421C407.459 271.421 407.103 271.779 407.103 272.219V286.667C407.103 287.109 407.461 287.465 407.901 287.465H466.303C466.745 287.465 467.101 287.107 467.101 286.667V272.219C467.101 271.777 466.743 271.421 466.303 271.421H407.901Z" class="icon-secondary-color"/>
</svg>
